<?xml version="1.0" standalone="no"?>
<!DOCTYPE svg PUBLIC "-//W3C//DTD SVG 1.1//EN" "http://www.w3.org/Graphics/SVG/1.1/DTD/svg11.dtd" >
<svg>
<metadata>
Created by FontForge 20090914 at Tue Apr  1 23:31:59 2014
 By www-data
Champion Gothic  Copr. The Hoefler Type Foundry, 1990
</metadata>
<defs>
<font id="Champion-HTF-Welterweight" horiz-adv-x="507" >
  <font-face 
    font-family="Champion"
    font-weight="500"
    font-stretch="normal"
    units-per-em="1000"
    panose-1="2 0 6 6 5 0 0 2 0 4"
    ascent="800"
    descent="-200"
    x-height="590"
    cap-height="800"
    bbox="-82 -306.998 1411 1050"
    underline-thickness="20"
    underline-position="-113"
    unicode-range="U+0020-U+FB02"
  />
<missing-glyph horiz-adv-x="500" 
 />
    <glyph glyph-name=".notdef" horiz-adv-x="500" 
 />
    <glyph glyph-name="space" unicode=" " horiz-adv-x="175" 
 />
    <glyph glyph-name="space" unicode="&#xa0;" horiz-adv-x="175" 
 />
    <glyph glyph-name="exclam" unicode="!" horiz-adv-x="257" 
d="M177 223h-97l-40 330v247h177v-247zM47 0v163h161v-163h-161z" />
    <glyph glyph-name="quotedbl" unicode="&#x22;" horiz-adv-x="448" 
d="M296 537h-54l76 100h-67v163h161v-163zM81 537h-53l76 100h-68v163h162v-163z" />
    <glyph glyph-name="numbersign" unicode="#" horiz-adv-x="724" 
d="M597 476l-24 -152h84v-157h-107l-26 -167h-167l25 167h-96l-26 -167h-188l26 167h-84v157h108l23 152h-84v158h108l26 166h187l-25 -166h96l26 166h167l-25 -166h84v-158h-108zM333 476l-24 -152h97l24 152h-97z" />
    <glyph glyph-name="dollar" unicode="$" horiz-adv-x="489" 
d="M467 190c0 -23.333 -3.50293 -45.833 -10.5029 -67.5s-17.333 -41.334 -31 -59.001s-30.667 -32.834 -51 -45.501s-43.833 -21.667 -70.5 -27v-80h-133v83c-47.333 12 -84 33.5 -110 64.5s-39 65.833 -39 104.5v96h162v-64c0 -15.333 4.83301 -28 14.5 -38
s23.5 -15 41.5 -15c34 0 51 17.667 51 53c0 16.667 -3.33301 31.5 -10 44.5s-16.167 26 -28.5 39s-27.166 26.833 -44.499 41.5s-36.333 31.667 -57 51c-40 38 -70.5 76 -91.5 114s-31.5 80 -31.5 126c0 22.667 3.33301 44.5 10 65.5s16.5 40.167 29.5 57.5
s29.5 32.5 49.5 45.5s43 22.5 69 28.5v79h134v-82c20.667 -6.66699 39.5 -16.167 56.5 -28.5s31.5 -26 43.5 -41s21.167 -31 27.5 -48s9.5 -33.5 9.5 -49.5v-97h-161v72c0 13.333 -4.33301 24.333 -13 33s-19 13 -31 13c-11.333 0 -22.166 -4.33301 -32.499 -13
s-15.5 -19.667 -15.5 -33c0 -16 1.66699 -30.167 5 -42.5s9.5 -24.666 18.5 -36.999s21.5 -26.166 37.5 -41.499l61 -56c42.667 -38 76.834 -77.5 102.501 -118.5s38.5 -83.5 38.5 -127.5z" />
    <glyph glyph-name="percent" unicode="%" horiz-adv-x="1005" 
d="M975 137c0 -22 -5.66699 -42.167 -17 -60.5s-26.333 -33.833 -45 -46.5s-39.834 -22.5 -63.501 -29.5s-47.834 -10.5 -72.501 -10.5s-49 3.5 -73 10.5s-45.333 16.833 -64 29.5s-33.667 28.167 -45 46.5s-17 38.5 -17 60.5v162c0 22 5.66699 42.167 17 60.5
s26.333 33.833 45 46.5s40 22.5 64 29.5s48.333 10.5 73 10.5s48.834 -3.5 72.501 -10.5s44.834 -16.833 63.501 -29.5s33.667 -28.167 45 -46.5s17 -38.5 17 -60.5v-162v0zM351 0h-154l457 800h154zM427 502c0 -22.667 -5.66699 -43 -17 -61s-26.333 -33.5 -45 -46.5
s-39.834 -23 -63.501 -30s-47.834 -10.5 -72.501 -10.5s-49 3.5 -73 10.5s-45.333 17 -64 30s-33.667 28.5 -45 46.5s-17 38.333 -17 61v161c0 22 5.66699 42.167 17 60.5s26.333 33.833 45 46.5s40 22.5 64 29.5s48.333 10.5 73 10.5s48.834 -3.5 72.501 -10.5
s44.834 -16.833 63.501 -29.5s33.667 -28.167 45 -46.5s17 -38.5 17 -60.5v-161v0zM808 301c0 10 -3 17.333 -9 22s-13.333 7 -22 7c-9.33301 0 -17 -2.33301 -23 -7s-9 -12 -9 -22v-166c0 -10 3 -17.333 9 -22s13.667 -7 23 -7c8.66699 0 16 2.33301 22 7s9 12 9 22v166z
M260 666c0 10 -3 17.333 -9 22s-13.333 7 -22 7s-16 -2.33301 -22 -7s-9 -12 -9 -22v-167c0 -10 3 -17.333 9 -22s13.333 -7 22 -7s16 2.33301 22 7s9 12 9 22v167z" />
    <glyph glyph-name="ampersand" unicode="&#x26;" horiz-adv-x="764" 
d="M756 157c0 -54 -15.667 -96.165 -47 -126.498s-73 -45.5 -125 -45.5c-11.333 0 -24.333 1.5 -39 4.5s-29.167 7 -43.5 12s-28.333 11.167 -42 18.5s-25.167 15 -34.5 23c-21.333 -17.333 -46 -31.333 -74 -42s-60 -16 -96 -16c-32.667 0 -63.667 5 -93 15
s-55 24.5 -77 43.5s-39.5 41.833 -52.5 68.5s-19.5 56.667 -19.5 90c0 28.667 4.5 54.5 13.5 77.5s21.167 43.667 36.5 62s33 35 53 50s41 28.833 63 41.5l-26 45c-8 14 -14.833 28 -20.5 42s-10.167 28.5 -13.5 43.5s-5 31.167 -5 48.5c0 32 6.33301 60.5 19 85.5
s29.5 46.333 50.5 64s45.5 31 73.5 40s57.333 13.5 88 13.5c32 0 61.5 -5 88.5 -15s50.333 -23 70 -39s35.167 -34.5 46.5 -55.5s17 -42.5 17 -64.5c0 -23.333 -2.5 -46 -7.5 -68s-13.833 -43.333 -26.5 -64s-30 -40.667 -52 -60s-50 -38 -84 -56
c8 -19.333 16 -36.333 24 -51s18.333 -32.334 31 -53.001c15.333 17.333 26.5 35 33.5 53s10.5 38.333 10.5 61h171c-2 -43.333 -12.167 -83.333 -30.5 -120s-49.5 -74.334 -93.5 -113.001c4 -7.33301 8.5 -13 13.5 -17s13.833 -6 26.5 -6c28 0 42 15 42 45v26h131v-61v0z
M394 619.002c0 12.667 -3.66797 22.166 -11.001 28.499s-17.666 9.5 -30.999 9.5c-15.333 0 -28.166 -4.5 -38.499 -13.5s-15.5 -21.167 -15.5 -36.5c0 -20 3.16699 -36.333 9.5 -49s15.166 -27.667 26.499 -45c14.667 10 26 19 34 27s14 16.167 18 24.5
s6.33301 16.833 7 25.5s1 18.334 1 29.001zM326.999 172.001c-10.667 12 -19.999 22.999 -27.999 32.999s-15.333 19.667 -22 29s-12.667 19.166 -18 29.499s-10.666 21.5 -15.999 33.5c-15.333 -11.333 -26.833 -23.666 -34.5 -36.999s-11.5 -28.666 -11.5 -45.999
c0 -19.333 6.16699 -35.333 18.5 -48s31.833 -19 58.5 -19c13.333 0 23.666 2.33301 30.999 7s14.666 10.667 21.999 18z" />
    <glyph glyph-name="quotesingle" unicode="'" horiz-adv-x="234" 
d="M81 537h-53l76 100h-68v163h162v-163z" />
    <glyph glyph-name="parenleft" unicode="(" horiz-adv-x="376" 
d="M338 -275c-44.667 28 -85.834 62.002 -123.501 102.002s-70.167 84.667 -97.5 134s-48.666 102.5 -63.999 159.5s-23 116.5 -23 178.5s7.66699 121.667 23 179s36.666 110.666 63.999 159.999s59.833 94.166 97.5 134.499s78.834 74.5 123.501 102.5l38 -40
c-26 -26 -49.167 -57.667 -69.5 -95s-37.5 -79 -51.5 -125s-24.667 -95.667 -32 -149s-11 -109 -11 -167c0 -57.333 3.66699 -112.5 11 -165.5s18 -102.5 32 -148.5s31.167 -87.667 51.5 -125s43.5 -69 69.5 -95z" />
    <glyph glyph-name="parenright" unicode=")" horiz-adv-x="376" 
d="M346 299c0 -62 -7.66699 -121.502 -23 -178.502s-36.666 -110.167 -63.999 -159.5s-59.833 -94 -97.5 -134s-78.834 -74 -123.501 -102l-38 40c26 26 49.167 57.667 69.5 95s37.5 79 51.5 125s24.667 95.5 32 148.5s11 108.167 11 165.5c0 58 -3.66699 113.667 -11 167
s-18 103 -32 149s-31.167 87.667 -51.5 125s-43.5 69 -69.5 95l38 40c44.667 -28 85.834 -62.167 123.501 -102.5s70.167 -85.166 97.5 -134.499s48.666 -102.666 63.999 -159.999s23 -117 23 -179z" />
    <glyph glyph-name="asterisk" unicode="*" horiz-adv-x="519" 
d="M427 382l-60 35l-47 42l14 -62v-69h-148v69l13 63l-47 -43l-60 -35l-74 128l60 35l61 19l-61 19l-60 35l74 128l60 -34l47 -43l-14 62v69h148v-69l-13 -62l47 43l60 34l74 -128l-60 -34l-61 -20l61 -19l60 -35z" />
    <glyph glyph-name="plus" unicode="+" horiz-adv-x="491" 
d="M324 300v-131h-157v131h-131v152h131v131h157v-131h131v-152h-131z" />
    <glyph glyph-name="comma" unicode="," horiz-adv-x="233" 
d="M81 -100h-53l76 100h-68v163h161v-163z" />
    <glyph glyph-name="hyphen" unicode="-" horiz-adv-x="300" 
d="M36 300v153h228v-153h-228z" />
    <glyph glyph-name="period" unicode="." horiz-adv-x="233" 
d="M36 0v163h161v-163h-161z" />
    <glyph glyph-name="slash" unicode="/" horiz-adv-x="435" 
d="M220 0h-184l235 800h184z" />
    <glyph glyph-name="zero" unicode="0" 
d="M477 162c0 -20 -5.66699 -40.5 -17 -61.5s-27 -40 -47 -57s-43.5 -31 -70.5 -42s-56.5 -16.5 -88.5 -16.5s-61.667 5.5 -89 16.5s-51 25 -71 42s-35.667 36 -47 57s-17 41.5 -17 61.5v476c0 20 5.66699 40.5 17 61.5s27 40 47 57s43.667 31 71 42s57 16.5 89 16.5
s61.5 -5.5 88.5 -16.5s50.5 -25 70.5 -42s35.667 -36 47 -57s17 -41.5 17 -61.5v-476v0zM291 624c0 10.667 -3.66699 19 -11 25s-16 9 -26 9c-10.667 0 -19.667 -3 -27 -9s-11 -14.333 -11 -25v-448c0 -10.667 3.66699 -19 11 -25s16.333 -9 27 -9c10 0 18.667 3 26 9
s11 14.333 11 25v448z" />
    <glyph glyph-name="one" unicode="1" horiz-adv-x="432" 
d="M146 0l0.000976562 579h-98v103c38.667 5.33301 70.167 18.333 94.5 39s40.166 47 47.499 79h133v-800h-177z" />
    <glyph glyph-name="two" unicode="2" horiz-adv-x="485" 
d="M473 610c0 -25.333 -3.66797 -49.333 -11.001 -72s-17.166 -45 -29.499 -67s-26.666 -43.833 -42.999 -65.5l-51.5 -67.5c-14.667 -19.333 -26.834 -36 -36.501 -50s-17.834 -27.5 -24.501 -40.5s-12.5 -26.5 -17.5 -40.5s-10.167 -30.333 -15.5 -49h203v-158h-420
c0 64.667 11.833 130.5 35.5 197.5s58.5 130.5 104.5 190.5l56 71.5c16 19.667 29.167 37.667 39.5 54s18.166 32 23.499 47s8 32.167 8 51.5c0 15.333 -4 26.833 -12 34.5s-18.333 11.5 -31 11.5s-22.667 -3.83301 -30 -11.5s-11 -19.167 -11 -34.5v-66h-177v92
c0 20 5.16699 40.5 15.5 61.5s24.833 40 43.5 57s41 31 67 42s55 16.5 87 16.5c38.667 0 72.334 -5.5 101.001 -16.5s52.334 -26 71.001 -45s32.5 -40.833 41.5 -65.5s13.5 -50.667 13.5 -78z" />
    <glyph glyph-name="three" unicode="3" horiz-adv-x="495" 
d="M469 152c0 -20 -5.66699 -40.002 -17 -60.002s-27 -38 -47 -54s-43.667 -28.833 -71 -38.5s-57 -14.5 -89 -14.5s-61.5 4.83301 -88.5 14.5s-50.5 22.5 -70.5 38.5s-35.667 34 -47 54s-17 40 -17 60v63h186v-44c0 -6.66699 3.66699 -13.167 11 -19.5s16 -9.5 26 -9.5
c10.667 0 19.667 3.16699 27 9.5s11 12.833 11 19.5v146c0 6.66699 -3.66699 12.334 -11 17.001s-16.333 7 -27 7h-83v128h83c10.667 0 19.667 2.33301 27 7s11 10.334 11 17.001v136c0 6.66699 -3.66699 13.167 -11 19.5s-16.333 9.5 -27 9.5
c-10 0 -18.667 -3.16699 -26 -9.5s-11 -12.833 -11 -19.5v-44h-186v63c0 20 5.66699 40 17 60s27 38 47 54s43.5 28.833 70.5 38.5s56.5 14.5 88.5 14.5s61.667 -4.83301 89 -14.5s51 -22.5 71 -38.5s35.667 -34 47 -54s17 -40 17 -60v-146c0 -8 -1.33301 -17 -4 -27
s-7 -19.667 -13 -29s-13.667 -17.833 -23 -25.5s-21 -12.834 -35 -15.501c14 -3.33301 25.667 -8.66602 35 -15.999s17 -15.833 23 -25.5s10.333 -19.5 13 -29.5s4 -19 4 -27v-155v0z" />
    <glyph glyph-name="four" unicode="4" horiz-adv-x="490" 
d="M417 130v-130h-161v130h-239v114l259 556h141v-541h56v-129h-56zM256 421l-70 -162h70v162z" />
    <glyph glyph-name="five" unicode="5" horiz-adv-x="497" 
d="M467 152c0 -20 -5.66797 -40 -17.001 -60s-27 -38 -47 -54s-43.667 -28.833 -71 -38.5s-57 -14.5 -89 -14.5s-61 4.83301 -87 14.5s-48.333 22.5 -67 38.5s-33.167 34 -43.5 54s-15.5 40 -15.5 60v73h176v-54c0 -6.66699 3.66699 -13.167 11 -19.5s16 -9.5 26 -9.5
c10.667 0 19.667 3.16699 27 9.5s11 12.833 11 19.5v202c0 6.66699 -3.66699 13.167 -11 19.5s-16.333 9.5 -27 9.5c-10 0 -18.667 -3.16699 -26 -9.5s-11 -12.833 -11 -19.5l-176 5l30 422h395c0 -20 -2.66699 -38 -8 -54s-12 -29.833 -20 -41.5s-17 -20.667 -27 -27
s-19.667 -9.5 -29 -9.5h-150l-11 -159c16 7.33301 32.667 13.333 50 18s35.666 7 54.999 7c21.333 0 41.333 -3.66699 60 -11s34.834 -16.833 48.501 -28.5s24.334 -24.5 32.001 -38.5s11.5 -28 11.5 -42v-262v0z" />
    <glyph glyph-name="six" unicode="6" 
d="M477 152c0 -20 -5.66895 -39.999 -17.002 -59.999s-27 -38 -47 -54s-43.667 -28.833 -71 -38.5s-57 -14.5 -89 -14.5s-61.5 4.83301 -88.5 14.5s-50.5 22.5 -70.5 38.5s-35.667 34 -47 54s-17 40 -17 60v496c0 20 5.66699 40 17 60s27 38 47 54s43.5 28.833 70.5 38.5
s56.5 14.5 88.5 14.5s61.667 -4.83301 89 -14.5s51 -22.5 71 -38.5s35.667 -34 47 -54s17 -40 17 -60v-63h-186v44c0 6.66699 -3.66699 13.167 -11 19.5s-16.333 9.5 -27 9.5c-10 0 -18.667 -3.16699 -26 -9.5s-11 -12.833 -11 -19.5v-146
c13.333 9.33301 30 16.666 50 21.999s39.667 8 59 8c21.333 0 41.333 -3.16699 60 -9.5s34.834 -14.5 48.501 -24.5s24.334 -21.5 32.001 -34.5s11.5 -26.5 11.5 -40.5v-252v0zM290.998 342.001c0 7.33301 -3.66699 14 -11 20s-16.333 9 -27 9c-10 0 -18.667 -3 -26 -9
s-11 -12.667 -11 -20v-171c0 -6.66699 3.66699 -13.167 11 -19.5s16 -9.5 26 -9.5c10.667 0 19.667 3.16699 27 9.5s11 12.833 11 19.5v171z" />
    <glyph glyph-name="seven" unicode="7" horiz-adv-x="458" 
d="M220 0h-177l195 658h-205v142h414z" />
    <glyph glyph-name="eight" unicode="8" 
d="M477 152c0 -20 -5.66699 -40 -17 -60s-27 -38 -47 -54s-43.667 -28.833 -71 -38.5s-57 -14.5 -89 -14.5s-61.5 4.83301 -88.5 14.5s-50.5 22.5 -70.5 38.5s-35.667 34 -47 54s-17 40 -17 60v145c0 8 2.33301 17.667 7 29s11.334 22.166 20.001 32.499
s18.667 19.833 30 28.5s24 14.667 38 18c-14 2.66699 -26.667 8.33398 -38 17.001s-21.333 18.167 -30 28.5s-15.334 21.166 -20.001 32.499s-7 21 -7 29v136c0 20 5.66699 40 17 60s27 38 47 54s43.5 28.833 70.5 38.5s56.5 14.5 88.5 14.5s61.667 -4.83301 89 -14.5
s51 -22.5 71 -38.5s35.667 -34 47 -54s17 -40 17 -60v-136c0 -8 -2.5 -17.667 -7.5 -29s-11.667 -22.166 -20 -32.499s-18.333 -19.833 -30 -28.5s-24.5 -14.334 -38.5 -17.001c14 -3.33301 26.833 -9.33301 38.5 -18s21.667 -18.167 30 -28.5s15 -21.166 20 -32.499
s7.5 -21 7.5 -29v-145v0zM291 629c0 6.66699 -3.66699 13.167 -11 19.5s-16.333 9.5 -27 9.5c-10 0 -18.667 -3.16699 -26 -9.5s-11 -12.833 -11 -19.5v-127c0 -6.66699 3.66699 -13.167 11 -19.5s16 -9.5 26 -9.5c10.667 0 19.667 3.16699 27 9.5s11 12.833 11 19.5v127z
M291 308c0 6.66699 -3.66699 13.167 -11 19.5s-16.333 9.5 -27 9.5c-10 0 -18.667 -3.16699 -26 -9.5s-11 -12.833 -11 -19.5v-137c0 -6.66699 3.66699 -13.167 11 -19.5s16 -9.5 26 -9.5c10.667 0 19.667 3.16699 27 9.5s11 12.833 11 19.5v137z" />
    <glyph glyph-name="nine" unicode="9" 
d="M477 152c0 -20 -5.66504 -40.001 -16.998 -60.001s-27 -38 -47 -54s-43.5 -28.833 -70.5 -38.5s-56.5 -14.5 -88.5 -14.5s-61.667 4.83301 -89 14.5s-51 22.5 -71 38.5s-35.667 34 -47 54s-17 40 -17 60v63h186v-44c0 -6.66699 3.66699 -13.167 11 -19.5
s16.333 -9.5 27 -9.5c10 0 18.667 3.16699 26 9.5s11 12.833 11 19.5v146c-13.333 -9.33301 -30 -16.666 -50 -21.999s-39.667 -8 -59 -8c-21.333 0 -41.333 3.16699 -60 9.5s-34.834 14.5 -48.501 24.5s-24.334 21.5 -32.001 34.5s-11.5 26.5 -11.5 40.5v252
c0 20 5.66699 40 17 60s27 38 47 54s43.667 28.833 71 38.5s57 14.5 89 14.5s61.5 -4.83301 88.5 -14.5s50.5 -22.5 70.5 -38.5s35.667 -34 47 -54s17 -40 17 -60v-496v0zM291.002 628.999c0 6.66699 -3.66699 13.167 -11 19.5s-16 9.5 -26 9.5
c-10.667 0 -19.667 -3.16699 -27 -9.5s-11 -12.833 -11 -19.5v-171c0 -7.33301 3.66699 -14 11 -20s16.333 -9 27 -9c10 0 18.667 3 26 9s11 12.667 11 20v171z" />
    <glyph glyph-name="colon" unicode=":" horiz-adv-x="233" 
d="M36 345v163h161v-163h-161zM36 0v163h161v-163h-161z" />
    <glyph glyph-name="semicolon" unicode=";" horiz-adv-x="234" 
d="M36 346v162h162v-162h-162zM81 -100h-53l76 100h-68v163h162v-163z" />
    <glyph glyph-name="less" unicode="&#x3c;" horiz-adv-x="465" 
d="M306 31l-276 345l276 346l134 -93l-198 -253l198 -252z" />
    <glyph glyph-name="equal" unicode="=" horiz-adv-x="453" 
d="M36 418v152h381v-152h-381zM36 184v153h381v-153h-381z" />
    <glyph glyph-name="greater" unicode="&#x3e;" horiz-adv-x="465" 
d="M159 31l-134 93l198 252l-198 253l134 93l276 -346z" />
    <glyph glyph-name="question" unicode="?" horiz-adv-x="489" 
d="M469 620c0 -24.667 -4.66797 -47.002 -14.001 -67.002s-20.833 -38.667 -34.5 -56s-28.5 -33.666 -44.5 -48.999s-30.833 -31 -44.5 -47s-25.167 -32.5 -34.5 -49.5s-14 -35.833 -14 -56.5c0 -10.667 2.5 -22.667 7.5 -36l13.5 -36h-169c-6 14 -11.5 28.5 -16.5 43.5
s-7.5 28.833 -7.5 41.5c0 28 4.5 52.833 13.5 74.5s20 41.334 33 59.001s27.333 33.834 43 48.501s30 29 43 43s24 28.5 33 43.5s13.5 31.833 13.5 50.5c0 12 -4.5 21.833 -13.5 29.5s-19.833 11.5 -32.5 11.5s-23.667 -3.83301 -33 -11.5s-14 -17.5 -14 -29.5v-76h-172v97
c0 20 5.16699 40 15.5 60s25 38 44 54s41.5 28.833 67.5 38.5s55 14.5 87 14.5c36 0 68.333 -5 97 -15s52.834 -23.833 72.501 -41.5s34.667 -38.334 45 -62.001s15.5 -49.167 15.5 -76.5zM141.999 -0.00195312v163h161v-163h-161z" />
    <glyph glyph-name="at" unicode="@" horiz-adv-x="846" 
d="M816 469c0 -40 -5.3252 -77.1641 -15.9922 -111.497s-26.334 -64.166 -47.001 -89.499s-46 -45.166 -76 -59.499s-64.333 -21.5 -103 -21.5c-21.333 0 -39.333 1.83301 -54 5.5s-26.834 8.66699 -36.501 15s-17.334 13.333 -23.001 21s-9.83398 15.5 -12.501 23.5
c-5.33301 -10 -12.333 -18.5 -21 -25.5s-18 -13 -28 -18s-19.833 -8.66699 -29.5 -11s-18.5 -3.5 -26.5 -3.5c-12.667 0 -24.334 2.33301 -35.001 7s-19.5 11 -26.5 19s-12.167 17.5 -15.5 28.5s-4 22.833 -2 35.5l35 230c2 12 6.16699 23.5 12.5 34.5s14.333 20.5 24 28.5
s20.5 14.333 32.5 19s24.333 7 37 7c15.333 0 29 -3.16699 41 -9.5s21.333 -15.166 28 -26.499l4 26h118l-37 -236c-3.33301 -22 -0.833008 -39.167 7.5 -51.5s20.166 -18.5 35.499 -18.5c30 0 52.667 16.667 68 50s23 76.333 23 129c0 32.667 -5.83301 63.5 -17.5 92.5
s-28.5 54.167 -50.5 75.5s-49 38.166 -81 50.499s-68.333 18.5 -109 18.5s-77.667 -6.83301 -111 -20.5s-62 -33.334 -86 -59.001s-42.5 -56.834 -55.5 -93.501s-19.5 -78.334 -19.5 -125.001c0 -47.333 6.5 -89.333 19.5 -126s31.333 -67.667 55 -93
s52.167 -44.666 85.5 -57.999s70.666 -20 111.999 -20c35.333 0 67 3.66699 95 11s55.667 19 83 35l60 -86c-33.333 -24.667 -70.166 -43.834 -110.499 -57.501s-82.833 -20.5 -127.5 -20.5c-56 0 -108.5 10.333 -157.5 31s-91.833 49.5 -128.5 86.5
s-65.667 80.833 -87 131.5s-32 106 -32 166s10.667 115.333 32 166s50.333 94.5 87 131.5s79.5 65.833 128.5 86.5s101.5 31 157.5 31c53.333 0 103.166 -9.33301 149.499 -28s86.666 -43.834 120.999 -75.501s61.333 -68.834 81 -111.501s29.5 -88 29.5 -136z
M461.008 479.003c1.33301 6.66699 -0.166992 12.334 -4.5 17.001s-10.166 7 -17.499 7c-6.66699 0 -12.667 -2.33301 -18 -7s-8.66602 -10.334 -9.99902 -17.001l-24 -160c-1.33301 -7.33301 0.166992 -13.166 4.5 -17.499s9.83301 -6.5 16.5 -6.5
c7.33301 0 13.666 2.16699 18.999 6.5s8.66602 10.166 9.99902 17.499l24 160v0z" />
    <glyph glyph-name="A" unicode="A" horiz-adv-x="465" 
d="M275 0l-9 115h-89l-14 -115h-163l121 800h220l124 -800h-190zM230 530l-32 -253h52z" />
    <glyph glyph-name="B" unicode="B" horiz-adv-x="496" 
d="M471 146c0 -25.333 -5.16699 -47.168 -15.5 -65.501s-24 -33.5 -41 -45.5s-36.333 -20.833 -58 -26.5s-43.5 -8.5 -65.5 -8.5h-255v800h255c22 0 43.833 -2.83301 65.5 -8.5s41 -14.5 58 -26.5s30.667 -27.167 41 -45.5s15.5 -40.166 15.5 -65.499v-154
c0 -18.667 -6 -36.167 -18 -52.5s-30 -29.833 -54 -40.5c24 -10.667 42 -24 54 -40s18 -33.667 18 -53v-168v0zM298 615.998c0 21.333 -10.667 32 -32 32h-46v-172h46c21.333 0 32 10.333 32 31v109zM298 296.998c0 11.333 -2.83301 19.333 -8.5 24s-13.5 7 -23.5 7h-46
v-177h46c21.333 0 32 10.667 32 32v114z" />
    <glyph glyph-name="C" unicode="C" horiz-adv-x="496" 
d="M476 152c0 -20 -5.16699 -40 -15.5 -60s-25.166 -38 -44.499 -54s-42.5 -28.833 -69.5 -38.5s-57.167 -14.5 -90.5 -14.5c-34 0 -64.833 4.83301 -92.5 14.5s-51.334 22.5 -71.001 38.5s-35 34 -46 54s-16.5 40 -16.5 60v496c0 20 5.5 40 16.5 60s26.333 38 46 54
s43.334 28.833 71.001 38.5s58.5 14.5 92.5 14.5c33.333 0 63.5 -4.83301 90.5 -14.5s50.167 -22.5 69.5 -38.5s34.166 -34 44.499 -54s15.5 -40 15.5 -60v-154h-182v130c0 10.667 -3.66699 19 -11 25s-16.333 9 -27 9c-11.333 0 -20.833 -3 -28.5 -9
s-11.5 -14.333 -11.5 -25v-448c0 -10.667 3.83301 -19 11.5 -25s17.167 -9 28.5 -9c10.667 0 19.667 3 27 9s11 14.333 11 25v130h182v-154v0z" />
    <glyph glyph-name="D" unicode="D" horiz-adv-x="491" 
d="M461 156c0 -28.667 -5.16699 -53.002 -15.5 -73.002s-24 -36.167 -41 -48.5s-36.167 -21.166 -57.5 -26.499s-43 -8 -65 -8h-246v800h246c22 0 43.667 -2.66699 65 -8s40.5 -14.166 57.5 -26.499s30.667 -28.5 41 -48.5s15.5 -44.333 15.5 -73v-488v0zM288 615.998
c0 21.333 -10.667 32 -32 32h-36v-497h36c21.333 0 32 10.667 32 32v433z" />
    <glyph glyph-name="E" unicode="E" horiz-adv-x="421" 
d="M36 0v800h362v-142h-178v-172h118v-152h-118v-182h178v-152h-362z" />
    <glyph glyph-name="F" unicode="F" horiz-adv-x="414" 
d="M220 658v-182h133v-148h-133v-328h-184v800h362v-142h-178z" />
    <glyph glyph-name="G" unicode="G" 
d="M380 0l-24 34.001c-11.333 -12 -28.166 -23.167 -50.499 -33.5s-46.833 -15.5 -73.5 -15.5c-32 0 -60.667 4.5 -86 13.5s-46.5 21.167 -63.5 36.5s-30 33.166 -39 53.499s-13.5 41.5 -13.5 63.5v496c0 20 5.5 40 16.5 60s26.333 38 46 54s43.334 28.833 71.001 38.5
s58.167 14.5 91.5 14.5c34 0 64.667 -4.83301 92 -14.5s50.666 -22.5 69.999 -38.5s34.166 -34 44.499 -54s15.5 -40 15.5 -60v-159h-182v135c0 10.667 -3.83301 19 -11.5 25s-17.167 9 -28.5 9s-20.666 -3 -27.999 -9s-11 -14.333 -11 -25v-458
c0 -11.333 3.66699 -19.833 11 -25.5s16.666 -8.5 27.999 -8.5s20.833 2.83301 28.5 8.5s11.5 14.167 11.5 25.5v109h-40v116h235v-391h-110z" />
    <glyph glyph-name="H" unicode="H" horiz-adv-x="533" 
d="M312 0v303h-92v-303h-184v800h184v-335h92v335h185v-800h-185z" />
    <glyph glyph-name="I" unicode="I" horiz-adv-x="269" 
d="M42 0v800h185v-800h-185z" />
    <glyph glyph-name="J" unicode="J" horiz-adv-x="462" 
d="M429 152c0 -20 -4.99805 -40 -14.998 -60s-24 -38 -42 -54s-39.5 -28.833 -64.5 -38.5s-52.833 -14.5 -83.5 -14.5s-58.334 4.83301 -83.001 14.5s-45.834 22.5 -63.501 38.5s-31.167 34 -40.5 54s-14 40 -14 60v174h165v-145c0 -10.667 3.5 -19 10.5 -25
s15.5 -9 25.5 -9s18.5 3 25.5 9s10.5 14.333 10.5 25v619h169v-648v0z" />
    <glyph glyph-name="K" unicode="K" horiz-adv-x="525" 
d="M337 0l-77 292l-39 -102v-190h-185v800h185v-361l99 361h190l-123 -367l143 -433h-193z" />
    <glyph glyph-name="L" unicode="L" horiz-adv-x="418" 
d="M36 0v800h184v-643h178v-157h-362z" />
    <glyph glyph-name="M" unicode="M" horiz-adv-x="752" 
d="M532 0v509l-116 -509h-116l-99 510v-510h-165v800h260l79 -365l77 365h264v-800h-184z" />
    <glyph glyph-name="N" unicode="N" horiz-adv-x="543" 
d="M346 0l-146 386v-386h-164v800h168l139 -393v393h164v-800h-161z" />
    <glyph glyph-name="O" unicode="O" 
d="M477 162c0 -20 -5.66699 -40.5 -17 -61.5s-27 -40 -47 -57s-43.5 -31 -70.5 -42s-56.5 -16.5 -88.5 -16.5s-61.667 5.5 -89 16.5s-51 25 -71 42s-35.667 36 -47 57s-17 41.5 -17 61.5v476c0 20 5.66699 40.5 17 61.5s27 40 47 57s43.667 31 71 42s57 16.5 89 16.5
s61.5 -5.5 88.5 -16.5s50.5 -25 70.5 -42s35.667 -36 47 -57s17 -41.5 17 -61.5v-476v0zM291 624c0 10.667 -3.66699 19 -11 25s-16 9 -26 9c-10.667 0 -19.667 -3 -27 -9s-11 -14.333 -11 -25v-448c0 -10.667 3.66699 -19 11 -25s16.333 -9 27 -9c10 0 18.667 3 26 9
s11 14.333 11 25v448z" />
    <glyph glyph-name="P" unicode="P" horiz-adv-x="483" 
d="M451 434c0 -25.333 -5.16699 -47.168 -15.5 -65.501s-24 -33.5 -41 -45.5s-36.333 -20.833 -58 -26.5s-43.5 -8.5 -65.5 -8.5h-51v-288h-184v800h235c22 0 43.833 -2.83301 65.5 -8.5s41 -14.5 58 -26.5s30.667 -27.167 41 -45.5s15.5 -40.166 15.5 -65.499v-220v0z
M278 615.998c0 21.333 -10.667 32 -32 32h-26v-208h26c21.333 0 32 10.667 32 32v144z" />
    <glyph glyph-name="Q" unicode="Q" 
d="M476 162c0 -17.333 -3.99805 -34.834 -11.998 -52.501s-19.333 -34.334 -34 -50.001s-32.334 -29.5 -53.001 -41.5s-43.334 -20.667 -68.001 -26c-7.33301 -14.667 -11 -29.334 -11 -44.001c0 -11.333 2.33301 -20.166 7 -26.499s12.667 -9.5 24 -9.5
s19.5 3.83301 24.5 11.5s7.5 15.167 7.5 22.5c0 4.66699 -1.16699 9.33398 -3.5 14.001s-4.16602 8.66699 -5.49902 12h80c3.33301 -6.66699 6.83301 -14.167 10.5 -22.5s5.5 -18.833 5.5 -31.5c0 -28.667 -11.5 -53 -34.5 -73s-57.833 -30 -104.5 -30
c-49.333 0 -86 10.333 -110 31s-36 48.334 -36 83.001c0 13.333 2.16699 25.5 6.5 36.5s9.16602 20.833 14.499 29.5c-22.667 6.66699 -43.5 16 -62.5 28s-35.167 25.667 -48.5 41s-23.833 31.5 -31.5 48.5s-11.5 33.5 -11.5 49.5v475c0 20.667 5.66699 41.5 17 62.5
s27 40 47 57s43.667 31 71 42s57 16.5 89 16.5s61.5 -5.5 88.5 -16.5s50.333 -25 70 -42s35.167 -36 46.5 -57s17 -41.833 17 -62.5v-475v0zM291.002 623.999c0 10.667 -3.5 19 -10.5 25s-15.833 9 -26.5 9s-19.667 -3 -27 -9s-11 -14.333 -11 -25v-448
c0 -11.333 3.66699 -19.833 11 -25.5s16.333 -8.5 27 -8.5s19.5 2.83301 26.5 8.5s10.5 14.167 10.5 25.5v448z" />
    <glyph glyph-name="R" unicode="R" horiz-adv-x="505" 
d="M326 0c-7.33301 17.333 -12.999 36.9971 -16.999 58.9971s-6 43.667 -6 65v163c0 8.66699 -3.16699 16 -9.5 22s-15.833 9 -28.5 9h-45v-318h-184v800h257c22 0 43.667 -2.83301 65 -8.5s40.5 -14.5 57.5 -26.5s30.667 -27.167 41 -45.5s15.5 -40.166 15.5 -65.499v-174
c0 -19.333 -6 -37 -18 -53s-29.667 -29.333 -53 -40c23.333 -10.667 41.666 -24.167 54.999 -40.5s20 -33.833 20 -52.5v-160c0 -25.333 2.5 -49.166 7.5 -71.499s10.167 -43.166 15.5 -62.499h-173zM299.001 615.997c0 21.333 -10.333 32 -31 32h-48v-188h48
c20.667 0 31 10.667 31 32v124z" />
    <glyph glyph-name="S" unicode="S" horiz-adv-x="489" 
d="M467 190c0 -27.333 -4.83691 -53.499 -14.5039 -78.499s-23.834 -46.833 -42.501 -65.5s-41.667 -33.5 -69 -44.5s-58.666 -16.5 -93.999 -16.5s-66.833 4.66699 -94.5 14s-51.167 22.166 -70.5 38.499s-34.166 35.333 -44.499 57s-15.5 44.5 -15.5 68.5v96h162v-64
c0 -15.333 4.83301 -28 14.5 -38s23.5 -15 41.5 -15c34 0 51 17.333 51 52c0 16.667 -3.33301 31.5 -10 44.5s-16.167 26.167 -28.5 39.5s-27.166 27.333 -44.499 42s-36.333 31.667 -57 51c-40 38 -70.5 75.833 -91.5 113.5s-31.5 79.5 -31.5 125.5
c0 27.333 4.66699 53.333 14 78s23.5 46.5 42.5 65.5s42.333 34 70 45s60.167 16.5 97.5 16.5c30.667 0 58.5 -5.5 83.5 -16.5s46.5 -25 64.5 -42s32 -36 42 -57s15 -41.5 15 -61.5v-97h-161v71c0 14 -4.33301 25.167 -13 33.5s-19 12.5 -31 12.5
c-11.333 0 -22.166 -4.16699 -32.499 -12.5s-15.5 -19.5 -15.5 -33.5c0 -16 1.66699 -30.167 5 -42.5s9.5 -24.666 18.5 -36.999s21.5 -26 37.5 -41l61 -55.5c42.667 -38.667 76.834 -78.334 102.501 -119.001s38.5 -83 38.5 -127z" />
    <glyph glyph-name="T" unicode="T" horiz-adv-x="473" 
d="M331 658v-658h-184v658h-127v142h433v-142h-122z" />
    <glyph glyph-name="U" unicode="U" horiz-adv-x="504" 
d="M471 152c0 -20 -5.16699 -40 -15.5 -60s-25 -38 -44 -54s-41.5 -28.833 -67.5 -38.5s-55 -14.5 -87 -14.5s-61.667 4.83301 -89 14.5s-51 22.5 -71 38.5s-35.667 34 -47 54s-17 40 -17 60v648h186v-624c0 -10.667 3.66699 -19 11 -25s16.333 -9 27 -9c10 0 18.667 3 26 9
s11 14.333 11 25v624h177v-648v0z" />
    <glyph glyph-name="V" unicode="V" horiz-adv-x="470" 
d="M320 0h-170l-150 800h192l47 -447l54 447h177z" />
    <glyph glyph-name="W" unicode="W" horiz-adv-x="728" 
d="M579 0h-154l-59 358l-60 -358h-162l-144 800h190l55 -411l57 411h127l57 -411l63 411h174z" />
    <glyph glyph-name="X" unicode="X" horiz-adv-x="502" 
d="M354 421l137 -421h-184l-60 211l-67 -211h-176l144 401l-134 399h184l57 -211l65 211h177z" />
    <glyph glyph-name="Y" unicode="Y" horiz-adv-x="499" 
d="M335 345v-345h-186v345l-154 455h185l73 -267l65 267h176z" />
    <glyph glyph-name="Z" unicode="Z" horiz-adv-x="430" 
d="M221 152h180v-152h-394l192 658h-160v142h370z" />
    <glyph glyph-name="bracketleft" unicode="[" horiz-adv-x="432" 
d="M85 -274v1150h362v-142h-178v-865h178v-143h-362z" />
    <glyph glyph-name="backslash" unicode="\" horiz-adv-x="435" 
d="M215 0l-235 800h184l235 -800h-184z" />
    <glyph glyph-name="bracketright" unicode="]" horiz-adv-x="432" 
d="M-15 -274v143h178v865h-178v142h362v-1150h-362z" />
    <glyph glyph-name="asciicircum" unicode="^" horiz-adv-x="432" 
d="M297 616l-79 89l-79 -89h-121l126 184h148l126 -184h-121z" />
    <glyph glyph-name="underscore" unicode="_" horiz-adv-x="572" 
d="M36 0v153h500v-153h-500z" />
    <glyph glyph-name="grave" unicode="`" horiz-adv-x="200" 
d="M86 616l-79 184h147l26 -184h-94z" />
    <glyph glyph-name="a" unicode="a" horiz-adv-x="485" 
d="M329 0l-7.99805 47.9961c-5.33301 -6.66699 -11.166 -13.5 -17.499 -20.5s-14 -13.167 -23 -18.5s-19.667 -9.83301 -32 -13.5s-26.833 -5.5 -43.5 -5.5c-56.667 0 -102.167 12.833 -136.5 38.5s-51.5 61.834 -51.5 108.501v31c0 22.667 5.66699 42.834 17 60.501
s28 34.334 50 50.001s48.833 31.334 80.5 47.001s67.834 32.5 108.501 50.5v70c0 10 -2 17.333 -6 22s-11 7 -21 7c-10.667 0 -17.667 -2.33301 -21 -7s-5 -12 -5 -22v-41h-183v48c0 22.667 5.66699 43 17 61s26.666 33.5 45.999 46.5s42 23 68 30s53.667 10.5 83 10.5
s56.166 -3.5 80.499 -10.5s45.166 -17 62.499 -30s30.833 -28.5 40.5 -46.5s14.5 -38.333 14.5 -61v-331c0 -20 1.16699 -40.5 3.5 -61.5s7.16602 -41.167 14.499 -60.5h-138zM273.002 257.996c-24 -12.667 -42.5 -23.5 -55.5 -32.5s-19.5 -22.167 -19.5 -39.5v-36
c0 -22.667 12.333 -34 37 -34c25.333 0 38 11.333 38 34v108z" />
    <glyph glyph-name="b" unicode="b" horiz-adv-x="497" 
d="M464 89c0 -16 -3.66699 -30.002 -11 -42.002s-17.166 -22.333 -29.499 -31s-27 -15.167 -44 -19.5s-35.167 -6.5 -54.5 -6.5c-30 0 -54.333 6 -73 18s-33.667 24.667 -45 38l-8 -46h-163v800h177v-256l20.5 20c7 6.66699 14.667 12.834 23 18.501s18 10.167 29 13.5
s24.167 5 39.5 5c19.333 0 37.5 -2.33301 54.5 -7s31.667 -11.167 44 -19.5s22.166 -18.666 29.499 -30.999s11 -26.5 11 -42.5v-412v0zM288 445.998c0 10 -3.66699 17.333 -11 22s-16.333 7 -27 7c-10 0 -18.667 -2.33301 -26 -7s-11 -12 -11 -22v-301
c0 -10 3.66699 -17.333 11 -22s16 -7 26 -7c10.667 0 19.667 2.33301 27 7s11 12 11 22v301z" />
    <glyph glyph-name="c" unicode="c" horiz-adv-x="478" 
d="M458 137c0 -22 -5.66699 -42.167 -17 -60.5s-26.666 -33.833 -45.999 -46.5s-42 -22.5 -68 -29.5s-53.667 -10.5 -83 -10.5s-57 3.5 -83 10.5s-48.667 16.833 -68 29.5s-34.666 28.167 -45.999 46.5s-17 38.5 -17 60.5v316c0 22.667 5.66699 43 17 61
s26.666 33.5 45.999 46.5s42 23 68 30s53.667 10.5 83 10.5s57 -3.5 83 -10.5s48.667 -17 68 -30s34.666 -28.5 45.999 -46.5s17 -38.333 17 -61v-83h-176v76c0 10 -3.66699 17.333 -11 22s-16.333 7 -27 7c-10 0 -18.667 -2.33301 -26 -7s-11 -12 -11 -22v-301
c0 -10 3.66699 -17.333 11 -22s16 -7 26 -7c10.667 0 19.667 2.33301 27 7s11 12 11 22v76h176v-84v0z" />
    <glyph glyph-name="d" unicode="d" horiz-adv-x="497" 
d="M299 0l-8 46.002c-11.333 -13.333 -26.333 -26 -45 -38s-43 -18 -73 -18c-19.333 0 -37.5 2.16699 -54.5 6.5s-31.833 10.833 -44.5 19.5s-22.667 19 -30 31s-11 26 -11 42v412c0 16 3.66699 30.167 11 42.5s17.333 22.666 30 30.999s27.5 14.833 44.5 19.5
s35.167 7 54.5 7c14.667 0 27.5 -1.66699 38.5 -5s20.833 -7.83301 29.5 -13.5s16.5 -11.834 23.5 -18.501l20.5 -20v256h176v-800h-162zM285 446.002c0 10 -3.66699 17.333 -11 22s-16.333 7 -27 7c-10 0 -18.667 -2.33301 -26 -7s-11 -12 -11 -22v-301
c0 -10 3.66699 -17.333 11 -22s16 -7 26 -7c10.667 0 19.667 2.33301 27 7s11 12 11 22v301z" />
    <glyph glyph-name="e" unicode="e" horiz-adv-x="485" 
d="M458 137c0 -22 -5.66699 -42.167 -17 -60.5s-26.666 -33.833 -45.999 -46.5s-42 -22.5 -68 -29.5s-53.667 -10.5 -83 -10.5s-57 3.5 -83 10.5s-48.667 16.833 -68 29.5s-34.666 28.167 -45.999 46.5s-17 38.5 -17 60.5v316c0 22.667 5.66699 43 17 61
s26.666 33.5 45.999 46.5s42 23 68 30s53.667 10.5 83 10.5s57 -3.5 83 -10.5s48.667 -17 68 -30s34.666 -28.5 45.999 -46.5s17 -38.333 17 -61v-195h-251v-113c0 -10 3.66699 -17.333 11 -22s16 -7 26 -7c10.667 0 19.667 2.33301 27 7s11 12 11 22v51h176v-59v0zM282 446
c0 10 -3.66699 17.333 -11 22s-16.333 7 -27 7c-10 0 -18.667 -2.33301 -26 -7s-11 -12 -11 -22v-84h75v84z" />
    <glyph glyph-name="f" unicode="f" horiz-adv-x="338" 
d="M253 470l-0.000976562 -469.999h-176v470h-57v120h57v50c0 22.667 4.33301 43.667 13 63s20.667 36.166 36 50.499s33.333 25.666 54 33.999s43.334 12.5 68.001 12.5h80v-135h-37c-10.667 0 -19.667 -3.66699 -27 -11s-11 -16.666 -11 -27.999v-36h75v-120h-75z" />
    <glyph glyph-name="g" unicode="g" horiz-adv-x="502" 
d="M526 605c0 -23.333 -7.16895 -40.6631 -21.502 -51.9961s-32.166 -17 -53.499 -17c-4.66699 0 -9.5 0.333008 -14.5 1s-10.167 1.66699 -15.5 3c24 -22.667 36 -51.334 36 -86.001v-100c0 -22.667 -5.5 -43.334 -16.5 -62.001s-26.167 -34.834 -45.5 -48.501
s-42 -24.167 -68 -31.5s-54 -11 -84 -11h-20c-11.333 -3.33301 -19.166 -8.33301 -23.499 -15s-6.5 -14.667 -6.5 -24s5.83301 -18.333 17.5 -27s23.5 -13 35.5 -13c69.333 0 124.333 -11.167 165 -33.5s61 -56.166 61 -101.499v-69c0 -25.333 -5.33301 -47.333 -16 -66
s-26 -34 -46 -46s-44.167 -20.833 -72.5 -26.5s-59.833 -8.5 -94.5 -8.5c-31.333 0 -60.5 2.83301 -87.5 8.5s-50.667 14.5 -71 26.5s-36.333 27.167 -48 45.5s-17.5 40.5 -17.5 66.5v57c0 22 6 40.833 18 56.5s26.667 27.5 44 35.5c-20.667 5.33301 -38 13.833 -52 25.5
s-21 26.5 -21 44.5c0 28 10.333 49.167 31 63.5s45.334 22.833 74.001 25.5c-27.333 7.33301 -48 23.166 -62 47.499s-21 50.166 -21 77.499v103c0 22 5.5 42.167 16.5 60.5s26.167 33.833 45.5 46.5s42 22.5 68 29.5s53.667 10.5 83 10.5
c9.33301 0 19.166 -0.5 29.499 -1.5s18.5 -1.5 24.5 -1.5c16 0 29.167 1 39.5 3s18.333 5 24 9s9.5 8.66699 11.5 14s3 11.333 3 18h146c2 -7.33301 3.33301 -14 4 -20s1 -11.667 1 -17zM280.998 452.003c0 10 -3.66699 17.333 -11 22s-16.333 7 -27 7
c-10 0 -18.667 -2.33301 -26 -7s-11 -12 -11 -22v-96c0 -10 3.66699 -17.333 11 -22s16 -7 26 -7c10.667 0 19.667 2.33301 27 7s11 12 11 22v96zM303.998 -31.9971c0 10.667 -4.00195 19.167 -12.002 25.5s-21.333 9.5 -40 9.5c-19.333 0 -32.666 -3 -39.999 -9
s-11 -14.667 -11 -26v-42c0 -11.333 4.33301 -20.166 13 -26.499s21.334 -9.5 38.001 -9.5c16 0 28.667 3.16699 38 9.5s14 15.166 14 26.499v42z" />
    <glyph glyph-name="h" unicode="h" horiz-adv-x="497" 
d="M288 0l-0.000976562 445.999c0 10 -3.66699 17.333 -11 22s-16.333 7 -27 7c-10 0 -18.667 -2.33301 -26 -7s-11 -12 -11 -22v-446h-177v800h177v-256c7.33301 8.66699 14.333 16.5 21 23.5s14.334 13 23.001 18s18.334 8.83301 29.001 11.5s23.667 4 39 4
c19.333 0 37.5 -2.33301 54.5 -7s31.667 -11.167 44 -19.5s22.166 -18.666 29.499 -30.999s11 -26.5 11 -42.5v-501h-176z" />
    <glyph glyph-name="i" unicode="i" horiz-adv-x="249" 
d="M36 667v133h177v-133h-177zM36 0v590h177v-590h-177z" />
    <glyph glyph-name="j" unicode="j" horiz-adv-x="249" 
d="M36 667v133h177v-133h-177zM213 -60c0 -22.667 -4.33203 -43.668 -12.999 -63.001s-20.667 -36.166 -36 -50.499s-33.333 -25.666 -54 -33.999s-43.334 -12.5 -68.001 -12.5h-81v135h38c10 0 18.667 3.66699 26 11s11 16.666 11 27.999v636h177v-650v0z" />
    <glyph glyph-name="k" unicode="k" horiz-adv-x="475" 
d="M303 0l-74 216l-16 -43v-173h-177v800h177v-424l75 215h181l-107 -249l123 -342h-182z" />
    <glyph glyph-name="l" unicode="l" horiz-adv-x="249" 
d="M36 0v800h177v-800h-177z" />
    <glyph glyph-name="m" unicode="m" horiz-adv-x="748" 
d="M538 0l0.00195312 440.998c0 10 -3.5 17.333 -10.5 22s-15.833 7 -26.5 7s-19.5 -2.33301 -26.5 -7s-10.5 -12 -10.5 -22v-441h-177v446c0 10 -3.66699 17.333 -11 22s-16 7 -26 7c-10.667 0 -19.667 -2.33301 -27 -7s-11 -12 -11 -22v-446h-176v590h165l8 -46
c11.333 14.667 26 27.834 44 39.501s41.667 17.5 71 17.5c31.333 0 57.166 -7.5 77.499 -22.5s36.5 -30.833 48.5 -47.5c6 8 12.667 16.167 20 24.5s16 15.833 26 22.5s21.5 12.167 34.5 16.5s28.167 6.5 45.5 6.5c19.333 0 37.5 -2.33301 54.5 -7s31.667 -11.167 44 -19.5
s22.166 -18.666 29.499 -30.999s11 -26.5 11 -42.5v-501h-177z" />
    <glyph glyph-name="n" unicode="n" horiz-adv-x="497" 
d="M288 0l0.000976562 445.998c0 10 -3.66699 17.333 -11 22s-16.333 7 -27 7c-10 0 -18.667 -2.33301 -26 -7s-11 -12 -11 -22v-446h-177v590h163l8 -46c12.667 14.667 28 27.834 46 39.501s42 17.5 72 17.5c19.333 0 37.5 -2.33301 54.5 -7s31.667 -11.167 44 -19.5
s22.166 -18.666 29.499 -30.999s11 -26.5 11 -42.5v-501h-176z" />
    <glyph glyph-name="o" unicode="o" horiz-adv-x="488" 
d="M458 137c0 -22 -5.66699 -42.167 -17 -60.5s-26.666 -33.833 -45.999 -46.5s-42 -22.5 -68 -29.5s-53.667 -10.5 -83 -10.5s-57 3.5 -83 10.5s-48.667 16.833 -68 29.5s-34.666 28.167 -45.999 46.5s-17 38.5 -17 60.5v316c0 22.667 5.66699 43 17 61
s26.666 33.5 45.999 46.5s42 23 68 30s53.667 10.5 83 10.5s57 -3.5 83 -10.5s48.667 -17 68 -30s34.666 -28.5 45.999 -46.5s17 -38.333 17 -61v-316v0zM282 446c0 10 -3.66699 17.333 -11 22s-16.333 7 -27 7s-19.5 -2.33301 -26.5 -7s-10.5 -12 -10.5 -22v-301
c0 -10 3.5 -17.333 10.5 -22s15.833 -7 26.5 -7s19.667 2.33301 27 7s11 12 11 22v301z" />
    <glyph glyph-name="p" unicode="p" horiz-adv-x="497" 
d="M464 89c0 -16 -3.66699 -29.999 -11 -41.999s-17.166 -22.333 -29.499 -31s-27 -15.167 -44 -19.5s-35.167 -6.5 -54.5 -6.5c-15.333 0 -28.5 1.66699 -39.5 5s-20.667 7.66602 -29 12.999s-16 11.333 -23 18l-20.5 20v-266h-177v810h163l8 -46
c11.333 13.333 26.333 26 45 38s43 18 73 18c19.333 0 37.5 -2.16699 54.5 -6.5s31.667 -10.833 44 -19.5s22.166 -19 29.499 -31s11 -26 11 -42v-412v0zM287 446.001c0 10 -3.5 17.333 -10.5 22s-15.833 7 -26.5 7s-19.5 -2.33301 -26.5 -7s-10.5 -12 -10.5 -22v-301
c0 -10 3.5 -17.333 10.5 -22s15.833 -7 26.5 -7s19.5 2.33301 26.5 7s10.5 12 10.5 22v301z" />
    <glyph glyph-name="q" unicode="q" horiz-adv-x="497" 
d="M285 -220v266.003c-13.333 -14 -28 -27 -44 -39s-38.667 -18 -68 -18c-19.333 0 -37.5 2.33301 -54.5 7s-31.833 11.167 -44.5 19.5s-22.667 18.666 -30 30.999s-11 26.5 -11 42.5v412c0 15.333 3.66699 29.166 11 41.499s17.333 22.666 30 30.999s27.5 14.833 44.5 19.5
s35.167 7 54.5 7c30 0 54.333 -6 73 -18s33.667 -24.667 45 -38l8 46h162v-810h-176zM285 445.003c0 10 -3.66699 17.333 -11 22s-16.333 7 -27 7c-10 0 -18.667 -2.33301 -26 -7s-11 -12 -11 -22v-301c0 -10 3.66699 -17.333 11 -22s16 -7 26 -7
c10.667 0 19.667 2.33301 27 7s11 12 11 22v301z" />
    <glyph glyph-name="r" unicode="r" horiz-adv-x="371" 
d="M356 459c-48.667 0 -84.833 -6.00098 -108.5 -18.001s-35.5 -31.667 -35.5 -59v-382h-176v590h168l9 -52c6.66699 9.33301 14 17.833 22 25.5s17.667 14.334 29 20.001s24.5 10 39.5 13s32.5 4.5 52.5 4.5v-142v0z" />
    <glyph glyph-name="s" unicode="s" horiz-adv-x="459" 
d="M436 152c0 -21.333 -3.83691 -41.666 -11.5039 -60.999s-19.667 -36.5 -36 -51.5s-37.5 -27 -63.5 -36s-57 -13.5 -93 -13.5c-64.667 0 -115.167 13.333 -151.5 40s-54.5 62.334 -54.5 107.001v61h161v-51c0 -10 3.66699 -18.167 11 -24.5s17.666 -9.5 30.999 -9.5
s23.5 3 30.5 9s10.5 17.667 10.5 35c0 13.333 -2.66699 24.666 -8 33.999s-13.5 18.166 -24.5 26.499s-24.833 16.666 -41.5 24.999l-60 30.5c-22 10.667 -39.833 22.167 -53.5 34.5s-24.5 25.5 -32.5 39.5s-13.5 28.667 -16.5 44s-4.5 31 -4.5 47
c0 30.667 5.33301 56.5 16 77.5s25.334 37.833 44.001 50.5s40.334 21.667 65.001 27s50.667 8 78 8c30 0 57.333 -3.5 82 -10.5s45.834 -17 63.501 -30s31.334 -28.5 41.001 -46.5s14.5 -38.333 14.5 -61v-56h-160v46c0 21.333 -12.333 32 -37 32
c-27.333 0 -41 -13.667 -41 -41c0 -11.333 1.66699 -20.333 5 -27s8.83301 -12.667 16.5 -18s17.334 -10.666 29.001 -15.999s26.167 -12.333 43.5 -21c32 -15.333 57.5 -31.333 76.5 -48s33.833 -33.667 44.5 -51s17.667 -34.5 21 -51.5s5 -33.5 5 -49.5z" />
    <glyph glyph-name="t" unicode="t" horiz-adv-x="374" 
d="M262 470v-306c0 -8.66699 3.66699 -15.667 11 -21s16 -8 26 -8h46v-135h-84c-28 0 -52.833 4.16699 -74.5 12.5s-40 19.5 -55 33.5s-26.333 30 -34 48s-11.5 36.667 -11.5 56v320h-76v120h76v102h176v-102h91v-120h-91z" />
    <glyph glyph-name="u" unicode="u" horiz-adv-x="496" 
d="M298 0l-8.00098 46c-11.333 -14 -26.333 -26.833 -45 -38.5s-43 -17.5 -73 -17.5c-19.333 0 -37.5 2.16699 -54.5 6.5s-31.667 10.833 -44 19.5s-22.166 19 -29.499 31s-11 26 -11 42v501h176v-445c0 -10 3.66699 -17.333 11 -22s16.333 -7 27 -7
c10 0 18.667 2.33301 26 7s11 12 11 22v445h176v-590h-162z" />
    <glyph glyph-name="v" unicode="v" horiz-adv-x="448" 
d="M295 0h-143l-152 590h169l60 -307l59 307h160z" />
    <glyph glyph-name="w" unicode="w" horiz-adv-x="665" 
d="M524 0h-134l-60 278l-61 -278h-134l-135 590h172l42 -297l57 297h133l57 -297l41 297h173z" />
    <glyph glyph-name="x" unicode="x" horiz-adv-x="502" 
d="M298 0l-50 165l-51 -165h-185l138 293l-138 297h185l49 -156l52 156h184l-139 -275l139 -315h-184z" />
    <glyph glyph-name="y" unicode="y" horiz-adv-x="484" 
d="M290 -111c-4 -16 -9.66602 -30.666 -16.999 -43.999s-17 -24.833 -29 -34.5s-27 -17.167 -45 -22.5s-40 -8 -66 -8h-87v135h55c11.333 0 19.666 2.16699 24.999 6.5s9.33301 10.166 12 17.499l31 95l-152 556h172l58 -323l57 323h172z" />
    <glyph glyph-name="z" unicode="z" horiz-adv-x="409" 
d="M16 0l153 470h-137v120h355l-153 -470h153v-120h-371z" />
    <glyph glyph-name="braceleft" unicode="{" horiz-adv-x="395" 
d="M316 -274c-32 0 -60.667 4.99414 -86 14.9941s-46.833 23 -64.5 39s-31.334 34 -41.001 54s-14.5 40 -14.5 60v319c0 6.66699 -3.66699 12.334 -11 17.001s-16.333 7 -27 7h-42v128h42c10.667 0 19.667 2.33301 27 7s11 10.334 11 17.001v319c0 20 4.83301 40 14.5 60
s23.334 38 41.001 54s39.167 28.833 64.5 38.5s54 14.5 86 14.5h94v-157h-79c-10 0 -18.667 -3 -26 -9s-11 -12.667 -11 -20v-290c0 -8 -1.33301 -17 -4 -27s-7 -19.833 -13 -29.5s-13.667 -18.167 -23 -25.5s-21 -12.666 -35 -15.999
c14 -3.33301 25.667 -8.66602 35 -15.999s17 -15.666 23 -24.999s10.333 -19 13 -29s4 -19 4 -27v-291c0 -7.33301 3.66699 -14.166 11 -20.499s16 -9.5 26 -9.5h79v-157h-94z" />
    <glyph glyph-name="bar" unicode="|" horiz-adv-x="269" 
d="M42 0v800h185v-800h-185z" />
    <glyph glyph-name="braceright" unicode="}" horiz-adv-x="395" 
d="M323 237c-10.667 0 -19.667 -2.32715 -27 -6.99414s-11 -10.334 -11 -17.001v-319c0 -20 -4.83301 -40 -14.5 -60s-23.334 -38 -41.001 -54s-39.167 -29 -64.5 -39s-54 -15 -86 -15h-94v157h79c10 0 18.667 3.16699 26 9.5s11 13.166 11 20.499v291c0 8 1.33301 17 4 27
s7 19.667 13 29s13.667 17.666 23 24.999s21 12.666 35 15.999c-14 3.33301 -25.667 8.66602 -35 15.999s-17 15.833 -23 25.5s-10.333 19.5 -13 29.5s-4 19 -4 27v290c0 7.33301 -3.66699 14 -11 20s-16 9 -26 9h-79v157h94c32 0 60.667 -4.83301 86 -14.5
s46.833 -22.5 64.5 -38.5s31.334 -34 41.001 -54s14.5 -40 14.5 -60v-319c0 -6.66699 3.66699 -12.334 11 -17.001s16.333 -7 27 -7h42v-128h-42z" />
    <glyph glyph-name="asciitilde" unicode="~" horiz-adv-x="455" 
d="M427 474c0 -47.333 -12.166 -83.833 -36.499 -109.5s-58.833 -38.5 -103.5 -38.5c-16 0 -29.667 2.33301 -41 7s-21.833 10 -31.5 16s-18.667 11.333 -27 16s-17.5 7 -27.5 7c-16.667 0 -29.667 -3.66699 -39 -11s-14 -19 -14 -35h-79c0 47.333 12.167 83.833 36.5 109.5
s58.833 38.5 103.5 38.5c16 0 29.667 -2.33301 41 -7s21.666 -10 30.999 -16s18.333 -11.333 27 -16s18 -7 28 -7c16 0 28.833 3.66699 38.5 11s14.5 19 14.5 35h79v0z" />
    <glyph glyph-name="exclamdown" unicode="&#xa1;" horiz-adv-x="257" 
d="M47 345v163h161v-163h-161zM40 -292v247l40 330h97l40 -330v-247h-177z" />
    <glyph glyph-name="cent" unicode="&#xa2;" horiz-adv-x="478" 
d="M458 133c0 -36.667 -14.333 -67.332 -43 -91.999s-65 -41 -109 -49v-80h-133v82c-42 9.33301 -76.333 26 -103 50s-40 53.667 -40 89v317c0 35.333 13.167 65 39.5 89s60.5 40.667 102.5 50v86h134v-84c44 -8 80.333 -24.333 109 -49s43 -55.334 43 -92.001v-79h-176v71
c0 10 -3.66699 17.333 -11 22s-16.333 7 -27 7c-10 0 -18.667 -2.33301 -26 -7s-11 -12 -11 -22v-301c0 -10 3.66699 -17.333 11 -22s16 -7 26 -7c10.667 0 19.667 2.33301 27 7s11 12 11 22v71h176v-79v0z" />
    <glyph glyph-name="sterling" unicode="&#xa3;" horiz-adv-x="631" 
d="M607 163c0 -24.667 -3.66504 -48.3389 -10.998 -71.0059s-19.333 -42.667 -36 -60s-38.5 -31.166 -65.5 -41.499s-60.167 -15.5 -99.5 -15.5c-40 0 -74.667 5.5 -104 16.5s-51.666 23.167 -66.999 36.5c-13.333 -16.667 -29.833 -29.667 -49.5 -39
s-40.834 -14 -63.501 -14c-15.333 0 -29.5 2.66699 -42.5 8s-24.333 12.333 -34 21s-17.167 18.834 -22.5 30.501s-8 24.167 -8 37.5c0 32.667 12.833 58.667 38.5 78s58.5 29 98.5 29c8.66699 0 18.5 -1 29.5 -3s20.167 -4.33301 27.5 -7c6 9.33301 11.5 17.5 16.5 24.5
s9.33301 14.167 13 21.5s6.66699 15.5 9 24.5s3.5 20.167 3.5 33.5c0 11.333 -1.16699 22.333 -3.5 33s-5.16602 18.334 -8.49902 23.001h-142v126h109c-4.66699 8 -9.83398 16.333 -15.501 25s-11 18.5 -16 29.5s-9.16699 23.667 -12.5 38s-5 31.833 -5 52.5
c0 27.333 4.5 53.333 13.5 78s22.5 46.5 40.5 65.5s40.333 34 67 45s57.667 16.5 93 16.5c36 0 67 -5 93 -15s47.5 -23 64.5 -39s29.667 -34 38 -54s12.5 -39.667 12.5 -59v-97h-170v71c0 11.333 -3.16699 20.166 -9.5 26.499s-15.833 9.5 -28.5 9.5s-22 -3.5 -28 -10.5
s-9 -15.5 -9 -25.5c0 -19.333 1.5 -36.666 4.5 -51.999s6.66699 -29.166 11 -41.499s9.16602 -23.5 14.499 -33.5s10 -20 14 -30h146v-126h-129c0.666992 0 1.16699 -3.16699 1.5 -9.5s0.5 -12.166 0.5 -17.499c0 -31.333 -7.16699 -60.5 -21.5 -87.5
s-35.833 -54.833 -64.5 -83.5c8.66699 -5.33301 17.334 -10 26.001 -14c7.33301 -3.33301 15.666 -6.33301 24.999 -9s18.666 -4 27.999 -4c22 0 37.167 5.33301 45.5 16s12.5 25.334 12.5 44.001v75h170v-76v0zM161.002 88.9951
c-4.66699 7.33301 -10.165 12.3311 -16.498 14.998s-12.5 4 -18.5 4c-17.333 0 -26 -7.33301 -26 -22c0 -5.33301 2.16699 -10.166 6.5 -14.499s11.166 -6.5 20.499 -6.5c5.33301 0 11.166 1.83301 17.499 5.5s11.833 9.83398 16.5 18.501z" />
    <glyph glyph-name="yen" unicode="&#xa5;" horiz-adv-x="566" 
d="M373 170v-170h-186v170h-161v117h155l-15 46h-140v117h95l-95 249h184l81 -227l73 227h176l-98 -249h98v-117h-146l-14 -46h160v-117h-167z" />
    <glyph glyph-name="section" unicode="&#xa7;" horiz-adv-x="444" 
d="M428 152c0 -30.667 -5.99609 -56.333 -17.9961 -77s-27.667 -37.334 -47 -50.001s-40.833 -21.667 -64.5 -27s-46.834 -8 -69.501 -8c-24.667 0 -48.5 3.5 -71.5 10.5s-43.5 16.833 -61.5 29.5s-32.333 28.167 -43 46.5s-16 38.5 -16 60.5v41h155v-31
c0 -20.667 11.333 -31 34 -31s34 13.667 34 41c0 6.66699 -5 14 -15 22s-31 19.667 -63 35c-52 24.667 -90.167 52.834 -114.5 84.501s-36.5 66.834 -36.5 105.501c0 24 4.66699 47.5 14 70.5s23.666 42.167 42.999 57.5c-20 19.333 -35.667 39.666 -47 60.999
s-17 43 -17 65c0 30.667 6 56.334 18 77.001s27.667 37.334 47 50.001s40.666 21.667 63.999 27s46.666 8 69.999 8c24.667 0 48.5 -3.5 71.5 -10.5s43.5 -16.833 61.5 -29.5s32.333 -28.167 43 -46.5s16 -38.5 16 -60.5v-40h-155v30c0 21.333 -11.333 32 -34 32
s-34 -13.667 -34 -41c0 -7.33301 5 -15 15 -23s31 -19.667 63 -35c52 -24.667 90.167 -52.834 114.5 -84.501s36.5 -66.834 36.5 -105.501c0 -24 -4.83301 -47.5 -14.5 -70.5s-24.167 -42.167 -43.5 -57.5c20.667 -19.333 36.667 -39.5 48 -60.5s17 -42.833 17 -65.5z
M260.004 429.001c0 9.33301 -3.33301 17.333 -10 24s-14.667 10 -24 10s-17.333 -3.33301 -24 -10s-10 -14.667 -10 -24v-48c0 -9.33301 3.33301 -17.333 10 -24s14.667 -10 24 -10s17.333 3.33301 24 10s10 14.667 10 24v48z" />
    <glyph glyph-name="dieresis" unicode="&#xa8;" horiz-adv-x="455" 
d="M273 637v163h161v-163h-161zM20 637v163h161v-163h-161z" />
    <glyph glyph-name="copyright" unicode="&#xa9;" horiz-adv-x="880" 
d="M850 400c0 -56.667 -10.667 -109.834 -32 -159.501s-50.5 -93 -87.5 -130s-80.5 -66.333 -130.5 -88s-103.333 -32.5 -160 -32.5s-109.834 10.833 -159.501 32.5s-93 51 -130 88s-66.333 80.333 -88 130s-32.5 102.834 -32.5 159.501s10.833 110 32.5 160
s51 93.5 88 130.5s80.333 66.167 130 87.5s102.834 32 159.501 32s110 -10.667 160 -32s93.5 -50.5 130.5 -87.5s66.167 -80.5 87.5 -130.5s32 -103.333 32 -160zM778 400c0 46.667 -8.83301 90.5 -26.5 131.5s-41.834 76.833 -72.501 107.5s-66.5 54.834 -107.5 72.501
s-84.833 26.5 -131.5 26.5s-90.5 -8.83301 -131.5 -26.5s-76.833 -41.834 -107.5 -72.501s-54.834 -66.5 -72.501 -107.5s-26.5 -84.833 -26.5 -131.5s8.83301 -90.5 26.5 -131.5s41.834 -76.833 72.501 -107.5s66.5 -54.834 107.5 -72.501s84.833 -26.5 131.5 -26.5
s90.5 8.83301 131.5 26.5s76.833 41.834 107.5 72.501s54.834 66.5 72.501 107.5s26.5 84.833 26.5 131.5zM622 368c-2.66699 -22.667 -8.66699 -43.8359 -18 -63.5029s-21.5 -36.667 -36.5 -51s-32.5 -25.666 -52.5 -33.999s-41.667 -12.5 -65 -12.5
c-26 0 -50.667 5 -74 15s-43.5 23.833 -60.5 41.5s-30.5 38.167 -40.5 61.5s-15 48.333 -15 75s5 51.667 15 75s23.5 43.833 40.5 61.5s37.167 31.5 60.5 41.5s48 15 74 15c24 0 45.833 -4.16699 65.5 -12.5s37 -19.666 52 -33.999s27.167 -31.5 36.5 -51.5
s15.333 -41.333 18 -64h-119c-2.66699 17.333 -9 29.833 -19 37.5s-19.667 11.5 -29 11.5c-12 0 -23.167 -6.16699 -33.5 -18.5s-15.5 -32.833 -15.5 -61.5s5.16699 -49.167 15.5 -61.5s21.5 -18.5 33.5 -18.5c9.33301 0 19 3.83301 29 11.5s16.333 19.834 19 36.501h119v0z
" />
    <glyph glyph-name="ordfeminine" unicode="&#xaa;" horiz-adv-x="334" 
d="M220 454l-4.99902 29.001c-7.33301 -8 -16.333 -15.833 -27 -23.5s-27 -11.5 -49 -11.5c-36.667 0 -66.167 7.66699 -88.5 23s-33.5 37 -33.5 65v19c0 13.333 3.66699 25.333 11 36s18 20.667 32 30s31.333 18.666 52 27.999l71 31v42c0 11.333 -5.66699 17 -17 17
c-7.33301 0 -12 -1.33301 -14 -4s-3 -7 -3 -13v-25h-119v29c0 13.333 3.66699 25.5 11 36.5s17.166 20.333 29.499 28s27 13.667 44 18s35.167 6.5 54.5 6.5c38.667 0 69.834 -8 93.501 -24s35.5 -37.667 35.5 -65v-199c0 -12 0.666992 -24.333 2 -37
s4.66602 -24.667 9.99902 -36h-90zM183.001 609.001c-15.333 -7.33301 -27.167 -13.833 -35.5 -19.5s-12.5 -13.5 -12.5 -23.5v-22c0 -13.333 8 -20 24 -20s24 6.66699 24 20v65z" />
    <glyph glyph-name="guillemotleft" unicode="&#xab;" horiz-adv-x="649" 
d="M423 0l-108 295l108 295h196l-113 -295l113 -295h-196zM138 0l-109 295l109 295h196l-113 -295l113 -295h-196z" />
    <glyph glyph-name="registered" unicode="&#xae;" horiz-adv-x="880" 
d="M850 400c0 -56.667 -10.667 -109.834 -32 -159.501s-50.5 -93 -87.5 -130s-80.5 -66.333 -130.5 -88s-103.333 -32.5 -160 -32.5s-109.834 10.833 -159.501 32.5s-93 51 -130 88s-66.333 80.333 -88 130s-32.5 102.834 -32.5 159.501s10.833 110 32.5 160
s51 93.5 88 130.5s80.333 66.167 130 87.5s102.834 32 159.501 32s110 -10.667 160 -32s93.5 -50.5 130.5 -87.5s66.167 -80.5 87.5 -130.5s32 -103.333 32 -160zM778 400c0 46.667 -8.83301 90.5 -26.5 131.5s-41.834 76.833 -72.501 107.5s-66.5 54.834 -107.5 72.501
s-84.833 26.5 -131.5 26.5s-90.5 -8.83301 -131.5 -26.5s-76.833 -41.834 -107.5 -72.501s-54.834 -66.5 -72.501 -107.5s-26.5 -84.833 -26.5 -131.5s8.83301 -90.5 26.5 -131.5s41.834 -76.833 72.501 -107.5s66.5 -54.834 107.5 -72.501s84.833 -26.5 131.5 -26.5
s90.5 8.83301 131.5 26.5s76.833 41.834 107.5 72.501s54.834 66.5 72.501 107.5s26.5 84.833 26.5 131.5zM508 217c-5.33301 8 -9.83398 16.9971 -13.501 26.9971s-5.5 20 -5.5 30v67c0 5.33301 -1.83301 9.83301 -5.5 13.5s-8.16699 5.5 -13.5 5.5h-60v-143h-145v367h241
c18.667 0 35.5 -2.66699 50.5 -8s27.667 -12.166 38 -20.499s18.166 -18.166 23.499 -29.499s8 -23 8 -35c0 -24 -6.16699 -44.167 -18.5 -60.5s-28.833 -27.166 -49.5 -32.499c6.66699 -2 14 -5 22 -9s15.333 -9.5 22 -16.5s12.334 -15.833 17.001 -26.5
s7 -23.334 7 -38.001v-30c0 -11.333 1.83301 -22.166 5.5 -32.499s7.83398 -19.833 12.501 -28.5h-136zM488.999 450.997c0 5.33301 -1.83301 10.333 -5.5 15s-8.16699 7 -13.5 7h-60v-44h60c5.33301 0 9.83301 2.33301 13.5 7s5.5 9.66699 5.5 15z" />
    <glyph glyph-name="macron" unicode="&#xaf;" horiz-adv-x="349" 
d="M27 693v107h295v-107h-295z" />
    <glyph glyph-name="degree" unicode="&#xb0;" horiz-adv-x="364" 
d="M344 648c0 -22.667 -4.16699 -43.834 -12.5 -63.501s-19.833 -36.834 -34.5 -51.501s-31.834 -26.167 -51.501 -34.5s-40.834 -12.5 -63.501 -12.5s-43.834 4.16699 -63.501 12.5s-36.834 19.833 -51.501 34.5s-26.167 31.834 -34.5 51.501s-12.5 40.834 -12.5 63.501
s4.16699 43.834 12.5 63.501s19.833 36.834 34.5 51.501s31.834 26.167 51.501 34.5s40.834 12.5 63.501 12.5s43.834 -4.16699 63.501 -12.5s36.834 -19.833 51.501 -34.5s26.167 -31.834 34.5 -51.501s12.5 -40.834 12.5 -63.501zM260 648
c0 21.333 -7.66699 39.666 -23 54.999s-33.666 23 -54.999 23c-22 0 -40.5 -7.66699 -55.5 -23s-22.5 -33.666 -22.5 -54.999s7.5 -39.666 22.5 -54.999s33.5 -23 55.5 -23c21.333 0 39.666 7.66699 54.999 23s23 33.666 23 54.999z" />
    <glyph glyph-name="acute" unicode="&#xb4;" horiz-adv-x="200" 
d="M110 616h-94l26 184h147z" />
    <glyph glyph-name="paragraph" unicode="&#xb6;" horiz-adv-x="664" 
d="M499 0v800h129v-800h-129zM312 0v323.999h-68c-26 0 -51.667 5 -77 15s-48 25 -68 45s-36.167 44.833 -48.5 74.5s-18.5 64.167 -18.5 103.5c0 38.667 6.16699 72.834 18.5 102.501s28.5 54.5 48.5 74.5s42.667 35.167 68 45.5s51 15.5 77 15.5h197v-800h-129z" />
    <glyph glyph-name="periodcentered" unicode="&#xb7;" horiz-adv-x="233" 
d="M36 345v163h161v-163h-161z" />
    <glyph glyph-name="cedilla" unicode="&#xb8;" horiz-adv-x="259" 
d="M222 -200c0 -26.667 -8.66602 -49.334 -25.999 -68.001s-39.333 -28 -66 -28s-48.834 9.33301 -66.501 28s-26.5 41.334 -26.5 68.001v27h77v-25c0 -4 1.5 -7.5 4.5 -10.5s6.83301 -4.5 11.5 -4.5c4 0 7.5 1.5 10.5 4.5s4.5 6.5 4.5 10.5v69c0 4 -1.5 7.5 -4.5 10.5
s-6.5 4.5 -10.5 4.5c-4.66699 0 -8.5 -1.5 -11.5 -4.5s-4.5 -6.5 -4.5 -10.5l-76 3l7 126h76l-6 -61c14 10.667 29 16 45 16c18 0 32.833 -6.33301 44.5 -19s17.5 -27.667 17.5 -45v-91v0z" />
    <glyph glyph-name="ordmasculine" unicode="&#xba;" horiz-adv-x="339" 
d="M309 536c0 -13.333 -3.66699 -25.333 -11 -36s-17.333 -19.834 -30 -27.501s-27.5 -13.667 -44.5 -18s-34.833 -6.5 -53.5 -6.5c-19.333 0 -37.5 2.16699 -54.5 6.5s-31.833 10.333 -44.5 18s-22.667 16.834 -30 27.501s-11 22.667 -11 36v190
c0 13.333 3.66699 25.5 11 36.5s17.333 20.333 30 28s27.5 13.667 44.5 18s35.167 6.5 54.5 6.5c18.667 0 36.5 -2.16699 53.5 -6.5s31.833 -10.333 44.5 -18s22.667 -17 30 -28s11 -23.167 11 -36.5v-190v0zM194 722c0 6 -2.33301 10.333 -7 13s-10.334 4 -17.001 4
c-7.33301 0 -13.166 -1.33301 -17.499 -4s-6.5 -7 -6.5 -13v-181c0 -6 2.16699 -10.333 6.5 -13s10.166 -4 17.499 -4c6.66699 0 12.334 1.33301 17.001 4s7 7 7 13v181z" />
    <glyph glyph-name="guillemotright" unicode="&#xbb;" horiz-adv-x="649" 
d="M511 0h-196l113 295l-113 295h196l109 -295zM226 0h-196l113 295l-113 295h196l108 -295z" />
    <glyph glyph-name="questiondown" unicode="&#xbf;" horiz-adv-x="489" 
d="M186 345v163h161v-163h-161zM464 -140c0 -20 -5.16602 -39.998 -15.499 -59.998s-25 -38 -44 -54s-41.5 -28.833 -67.5 -38.5s-55 -14.5 -87 -14.5c-36 0 -68.333 5 -97 15s-52.834 23.833 -72.501 41.5s-34.667 38.334 -45 62.001s-15.5 49.167 -15.5 76.5
c0 24.667 4.66699 47 14 67s20.833 38.667 34.5 56s28.5 33.666 44.5 48.999s30.833 31 44.5 47s25.167 32.5 34.5 49.5s14 35.833 14 56.5c0 10.667 -2.5 22.667 -7.5 36l-13.5 36h169c6 -14 11.5 -28.5 16.5 -43.5s7.5 -28.833 7.5 -41.5c0 -28 -4.5 -52.833 -13.5 -74.5
s-20 -41.334 -33 -59.001s-27.333 -33.834 -43 -48.501s-30 -29 -43 -43s-24 -28.667 -33 -44s-13.5 -32 -13.5 -50c0 -12 4.5 -21.833 13.5 -29.5s19.833 -11.5 32.5 -11.5s23.667 3.83301 33 11.5s14 17.5 14 29.5v76h172v-97v0z" />
    <glyph glyph-name="Agrave" unicode="&#xc0;" horiz-adv-x="465" 
d="M184 866l-79 184h147l26 -184h-94zM275 0l-9 115h-89l-14 -115h-163l121 800h220l124 -800h-190zM230 530l-32 -253h52z" />
    <glyph glyph-name="Aacute" unicode="&#xc1;" horiz-adv-x="465" 
d="M280 866h-94l26 184h147zM275 0l-9 115h-89l-14 -115h-163l121 800h220l124 -800h-190zM230 530l-32 -253h52z" />
    <glyph glyph-name="Acircumflex" unicode="&#xc2;" horiz-adv-x="465" 
d="M309 866l-79 89l-79 -89h-121l126 184h148l126 -184h-121zM275 0l-9 115h-89l-14 -115h-163l121 800h220l124 -800h-190zM230 530l-32 -253h52z" />
    <glyph glyph-name="Atilde" unicode="&#xc3;" horiz-adv-x="465" 
d="M435 1030c0 -47.333 -12.166 -83.833 -36.499 -109.5s-58.833 -38.5 -103.5 -38.5c-16 0 -29.667 2.33301 -41 7s-21.833 10 -31.5 16s-18.667 11.333 -27 16s-17.5 7 -27.5 7c-16.667 0 -29.667 -3.66699 -39 -11s-14 -19 -14 -35h-79
c0 47.333 12.167 83.833 36.5 109.5s58.833 38.5 103.5 38.5c16 0 29.667 -2.33301 41 -7s21.666 -10 30.999 -16s18.333 -11.333 27 -16s18 -7 28 -7c16 0 28.833 3.66699 38.5 11s14.5 19 14.5 35h79v0zM275.001 0l-9 115h-89l-14 -115h-163l121 800h220l124 -800h-190z
M230.001 530l-32 -253h52z" />
    <glyph glyph-name="Adieresis" unicode="&#xc4;" horiz-adv-x="465" 
d="M283 887v163h161v-163h-161zM30 887v163h161v-163h-161zM275 0l-9 115h-89l-14 -115h-163l121 800h220l124 -800h-190zM230 530l-32 -253h52z" />
    <glyph glyph-name="Aring" unicode="&#xc5;" horiz-adv-x="465" 
d="M275 0l-9 115h-89l-14 -115h-163l121 800h77c-20 6.66699 -36.5 18.667 -49.5 36s-19.5 37.333 -19.5 60c0 14 2.66699 27.333 8 40s12.5 23.5 21.5 32.5s19.667 16.167 32 21.5s25.5 8 39.5 8s27.167 -2.66699 39.5 -8s23 -12.5 32 -21.5s16.167 -19.833 21.5 -32.5
s8 -26 8 -40c0 -22.667 -6.5 -42.667 -19.5 -60s-29.5 -29.333 -49.5 -36h79l124 -800h-190zM279 896c0 13.333 -4.83301 24.833 -14.5 34.5s-21.167 14.5 -34.5 14.5s-24.833 -4.83301 -34.5 -14.5s-14.5 -21.167 -14.5 -34.5s4.83301 -24.666 14.5 -33.999
s21.167 -14 34.5 -14s24.833 4.66699 34.5 14s14.5 20.666 14.5 33.999zM230 530l-32 -253h52z" />
    <glyph glyph-name="AE" unicode="&#xc6;" horiz-adv-x="660" 
d="M274 0v115h-86l-25 -115h-163l192 800h445v-142h-178v-172h117v-152h-117v-182h178v-152h-363zM274 530l-52 -253h52v253z" />
    <glyph glyph-name="Ccedilla" unicode="&#xc7;" horiz-adv-x="496" 
d="M476 152c0 -20 -5.16699 -40 -15.5 -60s-24.833 -37.833 -43.5 -53.5s-41.5 -28.5 -68.5 -38.5s-56.833 -15 -89.5 -15l-4 -46c14 10.667 29 16 45 16c18 0 32.833 -6.33301 44.5 -19s17.5 -27.667 17.5 -45v-91c0 -26.667 -8.66699 -49.334 -26 -68.001
s-39.333 -28 -66 -28s-48.834 9.33301 -66.501 28s-26.5 41.334 -26.5 68.001v27h77v-25c0 -4 1.5 -7.5 4.5 -10.5s6.83301 -4.5 11.5 -4.5c4 0 7.5 1.5 10.5 4.5s4.5 6.5 4.5 10.5v69c0 4 -1.5 7.5 -4.5 10.5s-6.5 4.5 -10.5 4.5c-4.66699 0 -8.5 -1.5 -11.5 -4.5
s-4.5 -6.5 -4.5 -10.5l-76 3l6 120c-23.333 6 -44.5 14.5 -63.5 25.5s-35.167 23.5 -48.5 37.5s-23.666 29.167 -30.999 45.5s-11 32.833 -11 49.5v496c0 20 5.5 40 16.5 60s26.333 38 46 54s43.334 28.833 71.001 38.5s58.5 14.5 92.5 14.5
c33.333 0 63.5 -4.83301 90.5 -14.5s50.167 -22.5 69.5 -38.5s34.166 -34 44.499 -54s15.5 -40 15.5 -60v-154h-182v130c0 10.667 -3.66699 19 -11 25s-16.333 9 -27 9c-11.333 0 -20.833 -3 -28.5 -9s-11.5 -14.333 -11.5 -25v-448c0 -10.667 3.83301 -19 11.5 -25
s17.167 -9 28.5 -9c10.667 0 19.667 3 27 9s11 14.333 11 25v130h182v-154v0z" />
    <glyph glyph-name="Egrave" unicode="&#xc8;" horiz-adv-x="421" 
d="M184 866l-79 184h147l26 -184h-94zM36 0v800h362v-142h-178v-172h118v-152h-118v-182h178v-152h-362z" />
    <glyph glyph-name="Eacute" unicode="&#xc9;" horiz-adv-x="421" 
d="M270 866h-94l26 184h147zM36 0v800h362v-142h-178v-172h118v-152h-118v-182h178v-152h-362z" />
    <glyph glyph-name="Ecircumflex" unicode="&#xca;" horiz-adv-x="421" 
d="M291 866l-79 89l-79 -89h-121l126 184h148l126 -184h-121zM36 0v800h362v-142h-178v-172h118v-152h-118v-182h178v-152h-362z" />
    <glyph glyph-name="Edieresis" unicode="&#xcb;" horiz-adv-x="421" 
d="M263 887v163h161v-163h-161zM10 887v163h161v-163h-161zM36 0v800h362v-142h-178v-172h118v-152h-118v-182h178v-152h-362z" />
    <glyph glyph-name="Igrave" unicode="&#xcc;" horiz-adv-x="269" 
d="M92 866l-79 184h147l26 -184h-94zM42 0v800h185v-800h-185z" />
    <glyph glyph-name="Iacute" unicode="&#xcd;" horiz-adv-x="269" 
d="M182 866h-94l26 184h147zM42 0v800h185v-800h-185z" />
    <glyph glyph-name="Icircumflex" unicode="&#xce;" horiz-adv-x="269" 
d="M213 866l-79 89l-79 -89h-121l126 184h148l126 -184h-121zM42 0v800h185v-800h-185z" />
    <glyph glyph-name="Idieresis" unicode="&#xcf;" horiz-adv-x="269" 
d="M181 887v163h161v-163h-161zM-72 887v163h161v-163h-161zM42 0v800h185v-800h-185z" />
    <glyph glyph-name="Ntilde" unicode="&#xd1;" horiz-adv-x="543" 
d="M471 1030c0 -47.333 -12.166 -83.833 -36.499 -109.5s-58.833 -38.5 -103.5 -38.5c-16 0 -29.667 2.33301 -41 7s-21.833 10 -31.5 16s-18.667 11.333 -27 16s-17.5 7 -27.5 7c-16.667 0 -29.667 -3.66699 -39 -11s-14 -19 -14 -35h-79
c0 47.333 12.167 83.833 36.5 109.5s58.833 38.5 103.5 38.5c16 0 29.667 -2.33301 41 -7s21.666 -10 30.999 -16s18.333 -11.333 27 -16s18 -7 28 -7c16 0 28.833 3.66699 38.5 11s14.5 19 14.5 35h79v0zM346.001 0l-146 386v-386h-164v800h168l139 -393v393h164v-800h-161
z" />
    <glyph glyph-name="Ograve" unicode="&#xd2;" 
d="M206 866l-79 184h147l26 -184h-94zM477 162c0 -20 -5.66699 -40.5 -17 -61.5s-27 -40 -47 -57s-43.5 -31 -70.5 -42s-56.5 -16.5 -88.5 -16.5s-61.667 5.5 -89 16.5s-51 25 -71 42s-35.667 36 -47 57s-17 41.5 -17 61.5v476c0 20 5.66699 40.5 17 61.5s27 40 47 57
s43.667 31 71 42s57 16.5 89 16.5s61.5 -5.5 88.5 -16.5s50.5 -25 70.5 -42s35.667 -36 47 -57s17 -41.5 17 -61.5v-476v0zM291 624c0 10.667 -3.66699 19 -11 25s-16 9 -26 9c-10.667 0 -19.667 -3 -27 -9s-11 -14.333 -11 -25v-448c0 -10.667 3.66699 -19 11 -25
s16.333 -9 27 -9c10 0 18.667 3 26 9s11 14.333 11 25v448z" />
    <glyph glyph-name="Oacute" unicode="&#xd3;" 
d="M300 866h-94l26 184h147zM477 162c0 -20 -5.66699 -40.5 -17 -61.5s-27 -40 -47 -57s-43.5 -31 -70.5 -42s-56.5 -16.5 -88.5 -16.5s-61.667 5.5 -89 16.5s-51 25 -71 42s-35.667 36 -47 57s-17 41.5 -17 61.5v476c0 20 5.66699 40.5 17 61.5s27 40 47 57
s43.667 31 71 42s57 16.5 89 16.5s61.5 -5.5 88.5 -16.5s50.5 -25 70.5 -42s35.667 -36 47 -57s17 -41.5 17 -61.5v-476v0zM291 624c0 10.667 -3.66699 19 -11 25s-16 9 -26 9c-10.667 0 -19.667 -3 -27 -9s-11 -14.333 -11 -25v-448c0 -10.667 3.66699 -19 11 -25
s16.333 -9 27 -9c10 0 18.667 3 26 9s11 14.333 11 25v448z" />
    <glyph glyph-name="Ocircumflex" unicode="&#xd4;" 
d="M329 866l-79 89l-79 -89h-121l126 184h148l126 -184h-121zM477 162c0 -20 -5.66699 -40.5 -17 -61.5s-27 -40 -47 -57s-43.5 -31 -70.5 -42s-56.5 -16.5 -88.5 -16.5s-61.667 5.5 -89 16.5s-51 25 -71 42s-35.667 36 -47 57s-17 41.5 -17 61.5v476
c0 20 5.66699 40.5 17 61.5s27 40 47 57s43.667 31 71 42s57 16.5 89 16.5s61.5 -5.5 88.5 -16.5s50.5 -25 70.5 -42s35.667 -36 47 -57s17 -41.5 17 -61.5v-476v0zM291 624c0 10.667 -3.66699 19 -11 25s-16 9 -26 9c-10.667 0 -19.667 -3 -27 -9s-11 -14.333 -11 -25v-448
c0 -10.667 3.66699 -19 11 -25s16.333 -9 27 -9c10 0 18.667 3 26 9s11 14.333 11 25v448z" />
    <glyph glyph-name="Otilde" unicode="&#xd5;" 
d="M453 1030c0 -47.333 -12.166 -83.833 -36.499 -109.5s-58.833 -38.5 -103.5 -38.5c-16 0 -29.667 2.33301 -41 7s-21.833 10 -31.5 16s-18.667 11.333 -27 16s-17.5 7 -27.5 7c-16.667 0 -29.667 -3.66699 -39 -11s-14 -19 -14 -35h-79
c0 47.333 12.167 83.833 36.5 109.5s58.833 38.5 103.5 38.5c16 0 29.667 -2.33301 41 -7s21.666 -10 30.999 -16s18.333 -11.333 27 -16s18 -7 28 -7c16 0 28.833 3.66699 38.5 11s14.5 19 14.5 35h79v0zM477.001 162c0 -20 -5.66699 -40.5 -17 -61.5s-27 -40 -47 -57
s-43.5 -31 -70.5 -42s-56.5 -16.5 -88.5 -16.5s-61.667 5.5 -89 16.5s-51 25 -71 42s-35.667 36 -47 57s-17 41.5 -17 61.5v476c0 20 5.66699 40.5 17 61.5s27 40 47 57s43.667 31 71 42s57 16.5 89 16.5s61.5 -5.5 88.5 -16.5s50.5 -25 70.5 -42s35.667 -36 47 -57
s17 -41.5 17 -61.5v-476v0zM291.001 624c0 10.667 -3.66699 19 -11 25s-16 9 -26 9c-10.667 0 -19.667 -3 -27 -9s-11 -14.333 -11 -25v-448c0 -10.667 3.66699 -19 11 -25s16.333 -9 27 -9c10 0 18.667 3 26 9s11 14.333 11 25v448z" />
    <glyph glyph-name="Odieresis" unicode="&#xd6;" 
d="M301 887v163h161v-163h-161zM48 887v163h161v-163h-161zM477 162c0 -20 -5.66699 -40.5 -17 -61.5s-27 -40 -47 -57s-43.5 -31 -70.5 -42s-56.5 -16.5 -88.5 -16.5s-61.667 5.5 -89 16.5s-51 25 -71 42s-35.667 36 -47 57s-17 41.5 -17 61.5v476
c0 20 5.66699 40.5 17 61.5s27 40 47 57s43.667 31 71 42s57 16.5 89 16.5s61.5 -5.5 88.5 -16.5s50.5 -25 70.5 -42s35.667 -36 47 -57s17 -41.5 17 -61.5v-476v0zM291 624c0 10.667 -3.66699 19 -11 25s-16 9 -26 9c-10.667 0 -19.667 -3 -27 -9s-11 -14.333 -11 -25v-448
c0 -10.667 3.66699 -19 11 -25s16.333 -9 27 -9c10 0 18.667 3 26 9s11 14.333 11 25v448z" />
    <glyph glyph-name="Oslash" unicode="&#xd8;" 
d="M477 162c0 -20 -5.66797 -40.501 -17.001 -61.501s-27 -40 -47 -57s-43.5 -31 -70.5 -42s-56.5 -16.5 -88.5 -16.5c-34 0 -66.333 6.33301 -97 19l-9 -34h-118l31 108c-20.667 28 -31 56 -31 84v476c0 20 5.66699 40.5 17 61.5s27 40 47 57s43.667 31 71 42
s57 16.5 89 16.5c32.667 0 64.334 -6.33301 95.001 -19l9 34h118l-31 -107c21.333 -27.333 32 -55.666 32 -84.999v-476v0zM290.999 623.999c0 10.667 -3.66699 19 -11 25s-16 9 -26 9c-10.667 0 -19.667 -3 -27 -9s-11 -14.333 -11 -25v-448c0 -10.667 3.66699 -19 11 -25
s16.333 -9 27 -9c10 0 18.667 3 26 9s11 14.333 11 25v448z" />
    <glyph glyph-name="Ugrave" unicode="&#xd9;" horiz-adv-x="504" 
d="M208 866l-79 184h147l26 -184h-94zM471 152c0 -20 -5.16699 -40 -15.5 -60s-25 -38 -44 -54s-41.5 -28.833 -67.5 -38.5s-55 -14.5 -87 -14.5s-61.667 4.83301 -89 14.5s-51 22.5 -71 38.5s-35.667 34 -47 54s-17 40 -17 60v648h186v-624c0 -10.667 3.66699 -19 11 -25
s16.333 -9 27 -9c10 0 18.667 3 26 9s11 14.333 11 25v624h177v-648v0z" />
    <glyph glyph-name="Uacute" unicode="&#xda;" horiz-adv-x="504" 
d="M302 866h-94l26 184h147zM471 152c0 -20 -5.16699 -40 -15.5 -60s-25 -38 -44 -54s-41.5 -28.833 -67.5 -38.5s-55 -14.5 -87 -14.5s-61.667 4.83301 -89 14.5s-51 22.5 -71 38.5s-35.667 34 -47 54s-17 40 -17 60v648h186v-624c0 -10.667 3.66699 -19 11 -25
s16.333 -9 27 -9c10 0 18.667 3 26 9s11 14.333 11 25v624h177v-648v0z" />
    <glyph glyph-name="Ucircumflex" unicode="&#xdb;" horiz-adv-x="504" 
d="M335 866l-79 89l-79 -89h-121l126 184h148l126 -184h-121zM471 152c0 -20 -5.16699 -40 -15.5 -60s-25 -38 -44 -54s-41.5 -28.833 -67.5 -38.5s-55 -14.5 -87 -14.5s-61.667 4.83301 -89 14.5s-51 22.5 -71 38.5s-35.667 34 -47 54s-17 40 -17 60v648h186v-624
c0 -10.667 3.66699 -19 11 -25s16.333 -9 27 -9c10 0 18.667 3 26 9s11 14.333 11 25v624h177v-648v0z" />
    <glyph glyph-name="Udieresis" unicode="&#xdc;" horiz-adv-x="504" 
d="M299 887v163h161v-163h-161zM46 887v163h161v-163h-161zM471 152c0 -20 -5.16699 -40 -15.5 -60s-25 -38 -44 -54s-41.5 -28.833 -67.5 -38.5s-55 -14.5 -87 -14.5s-61.667 4.83301 -89 14.5s-51 22.5 -71 38.5s-35.667 34 -47 54s-17 40 -17 60v648h186v-624
c0 -10.667 3.66699 -19 11 -25s16.333 -9 27 -9c10 0 18.667 3 26 9s11 14.333 11 25v624h177v-648v0z" />
    <glyph glyph-name="germandbls" unicode="&#xdf;" horiz-adv-x="495" 
d="M465 152c0 -54 -18.8311 -93.666 -56.498 -118.999s-92.834 -38 -165.501 -38v131c14.667 0 27.167 3.33301 37.5 10s15.5 18 15.5 34v210c0 15.333 -5.16699 26.5 -15.5 33.5s-22.833 10.5 -37.5 10.5v121c19.333 0 35 5.66699 47 17s18 28 18 50
c0 44.667 -18.333 67 -55 67c-14 0 -25.5 -4.83301 -34.5 -14.5s-13.5 -22.834 -13.5 -39.501v-625h-169v616c0 24.667 4.5 49.167 13.5 73.5s22.167 46.166 39.5 65.499s38.833 35 64.5 47s55.5 18 89.5 18c38 0 70.833 -5.33301 98.5 -16s50.667 -25 69 -43
s31.833 -38.667 40.5 -62s13 -47.666 13 -72.999c0 -30.667 -5.16699 -58.334 -15.5 -83.001s-28.833 -42.334 -55.5 -53.001c27.333 -7.33301 46.166 -21.166 56.499 -41.499s15.5 -44.166 15.5 -71.499v-225v0z" />
    <glyph glyph-name="agrave" unicode="&#xe0;" horiz-adv-x="485" 
d="M200 666l-79 184h147l26 -184h-94zM329 0l-7.99805 47.9961c-5.33301 -6.66699 -11.166 -13.5 -17.499 -20.5s-14 -13.167 -23 -18.5s-19.667 -9.83301 -32 -13.5s-26.833 -5.5 -43.5 -5.5c-56.667 0 -102.167 12.833 -136.5 38.5s-51.5 61.834 -51.5 108.501v31
c0 22.667 5.66699 42.834 17 60.501s28 34.334 50 50.001s48.833 31.334 80.5 47.001s67.834 32.5 108.501 50.5v70c0 10 -2 17.333 -6 22s-11 7 -21 7c-10.667 0 -17.667 -2.33301 -21 -7s-5 -12 -5 -22v-41h-183v48c0 22.667 5.66699 43 17 61s26.666 33.5 45.999 46.5
s42 23 68 30s53.667 10.5 83 10.5s56.166 -3.5 80.499 -10.5s45.166 -17 62.499 -30s30.833 -28.5 40.5 -46.5s14.5 -38.333 14.5 -61v-331c0 -20 1.16699 -40.5 3.5 -61.5s7.16602 -41.167 14.499 -60.5h-138zM273.002 257.996c-24 -12.667 -42.5 -23.5 -55.5 -32.5
s-19.5 -22.167 -19.5 -39.5v-36c0 -22.667 12.333 -34 37 -34c25.333 0 38 11.333 38 34v108z" />
    <glyph glyph-name="aacute" unicode="&#xe1;" horiz-adv-x="485" 
d="M284 666h-94l26 184h147zM329 0l-7.99805 47.9961c-5.33301 -6.66699 -11.166 -13.5 -17.499 -20.5s-14 -13.167 -23 -18.5s-19.667 -9.83301 -32 -13.5s-26.833 -5.5 -43.5 -5.5c-56.667 0 -102.167 12.833 -136.5 38.5s-51.5 61.834 -51.5 108.501v31
c0 22.667 5.66699 42.834 17 60.501s28 34.334 50 50.001s48.833 31.334 80.5 47.001s67.834 32.5 108.501 50.5v70c0 10 -2 17.333 -6 22s-11 7 -21 7c-10.667 0 -17.667 -2.33301 -21 -7s-5 -12 -5 -22v-41h-183v48c0 22.667 5.66699 43 17 61s26.666 33.5 45.999 46.5
s42 23 68 30s53.667 10.5 83 10.5s56.166 -3.5 80.499 -10.5s45.166 -17 62.499 -30s30.833 -28.5 40.5 -46.5s14.5 -38.333 14.5 -61v-331c0 -20 1.16699 -40.5 3.5 -61.5s7.16602 -41.167 14.499 -60.5h-138zM273.002 257.996c-24 -12.667 -42.5 -23.5 -55.5 -32.5
s-19.5 -22.167 -19.5 -39.5v-36c0 -22.667 12.333 -34 37 -34c25.333 0 38 11.333 38 34v108z" />
    <glyph glyph-name="acircumflex" unicode="&#xe2;" horiz-adv-x="485" 
d="M325 666l-79 89l-79 -89h-121l126 184h148l126 -184h-121zM329 0l-7.99805 47.9961c-5.33301 -6.66699 -11.166 -13.5 -17.499 -20.5s-14 -13.167 -23 -18.5s-19.667 -9.83301 -32 -13.5s-26.833 -5.5 -43.5 -5.5c-56.667 0 -102.167 12.833 -136.5 38.5
s-51.5 61.834 -51.5 108.501v31c0 22.667 5.66699 42.834 17 60.501s28 34.334 50 50.001s48.833 31.334 80.5 47.001s67.834 32.5 108.501 50.5v70c0 10 -2 17.333 -6 22s-11 7 -21 7c-10.667 0 -17.667 -2.33301 -21 -7s-5 -12 -5 -22v-41h-183v48
c0 22.667 5.66699 43 17 61s26.666 33.5 45.999 46.5s42 23 68 30s53.667 10.5 83 10.5s56.166 -3.5 80.499 -10.5s45.166 -17 62.499 -30s30.833 -28.5 40.5 -46.5s14.5 -38.333 14.5 -61v-331c0 -20 1.16699 -40.5 3.5 -61.5s7.16602 -41.167 14.499 -60.5h-138z
M273.002 257.996c-24 -12.667 -42.5 -23.5 -55.5 -32.5s-19.5 -22.167 -19.5 -39.5v-36c0 -22.667 12.333 -34 37 -34c25.333 0 38 11.333 38 34v108z" />
    <glyph glyph-name="atilde" unicode="&#xe3;" horiz-adv-x="485" 
d="M453 830c0 -47.333 -12.166 -83.833 -36.499 -109.5s-58.833 -38.5 -103.5 -38.5c-16 0 -29.667 2.33301 -41 7s-21.833 10 -31.5 16s-18.667 11.333 -27 16s-17.5 7 -27.5 7c-16.667 0 -29.667 -3.66699 -39 -11s-14 -19 -14 -35h-79c0 47.333 12.167 83.833 36.5 109.5
s58.833 38.5 103.5 38.5c16 0 29.667 -2.33301 41 -7s21.666 -10 30.999 -16s18.333 -11.333 27 -16s18 -7 28 -7c16 0 28.833 3.66699 38.5 11s14.5 19 14.5 35h79v0zM329.001 0l-7.99805 47.9961c-5.33301 -6.66699 -11.166 -13.5 -17.499 -20.5s-14 -13.167 -23 -18.5
s-19.667 -9.83301 -32 -13.5s-26.833 -5.5 -43.5 -5.5c-56.667 0 -102.167 12.833 -136.5 38.5s-51.5 61.834 -51.5 108.501v31c0 22.667 5.66699 42.834 17 60.501s28 34.334 50 50.001s48.833 31.334 80.5 47.001s67.834 32.5 108.501 50.5v70c0 10 -2 17.333 -6 22
s-11 7 -21 7c-10.667 0 -17.667 -2.33301 -21 -7s-5 -12 -5 -22v-41h-183v48c0 22.667 5.66699 43 17 61s26.666 33.5 45.999 46.5s42 23 68 30s53.667 10.5 83 10.5s56.166 -3.5 80.499 -10.5s45.166 -17 62.499 -30s30.833 -28.5 40.5 -46.5s14.5 -38.333 14.5 -61v-331
c0 -20 1.16699 -40.5 3.5 -61.5s7.16602 -41.167 14.499 -60.5h-138zM273.003 257.996c-24 -12.667 -42.5 -23.5 -55.5 -32.5s-19.5 -22.167 -19.5 -39.5v-36c0 -22.667 12.333 -34 37 -34c25.333 0 38 11.333 38 34v108z" />
    <glyph glyph-name="adieresis" unicode="&#xe4;" horiz-adv-x="485" 
d="M291 687v163h161v-163h-161zM38 687v163h161v-163h-161zM329 0l-7.99805 47.9961c-5.33301 -6.66699 -11.166 -13.5 -17.499 -20.5s-14 -13.167 -23 -18.5s-19.667 -9.83301 -32 -13.5s-26.833 -5.5 -43.5 -5.5c-56.667 0 -102.167 12.833 -136.5 38.5
s-51.5 61.834 -51.5 108.501v31c0 22.667 5.66699 42.834 17 60.501s28 34.334 50 50.001s48.833 31.334 80.5 47.001s67.834 32.5 108.501 50.5v70c0 10 -2 17.333 -6 22s-11 7 -21 7c-10.667 0 -17.667 -2.33301 -21 -7s-5 -12 -5 -22v-41h-183v48
c0 22.667 5.66699 43 17 61s26.666 33.5 45.999 46.5s42 23 68 30s53.667 10.5 83 10.5s56.166 -3.5 80.499 -10.5s45.166 -17 62.499 -30s30.833 -28.5 40.5 -46.5s14.5 -38.333 14.5 -61v-331c0 -20 1.16699 -40.5 3.5 -61.5s7.16602 -41.167 14.499 -60.5h-138z
M273.002 257.996c-24 -12.667 -42.5 -23.5 -55.5 -32.5s-19.5 -22.167 -19.5 -39.5v-36c0 -22.667 12.333 -34 37 -34c25.333 0 38 11.333 38 34v108z" />
    <glyph glyph-name="aring" unicode="&#xe5;" horiz-adv-x="485" 
d="M352 758c0 -14 -2.66699 -27.167 -8 -39.5s-12.5 -23 -21.5 -32s-19.667 -16.167 -32 -21.5s-25.5 -8 -39.5 -8s-27.167 2.66699 -39.5 8s-23 12.5 -32 21.5s-16.167 19.667 -21.5 32s-8 25.5 -8 39.5s2.66699 27.333 8 40s12.5 23.5 21.5 32.5s19.667 16.167 32 21.5
s25.5 8 39.5 8s27.167 -2.66699 39.5 -8s23 -12.5 32 -21.5s16.167 -19.833 21.5 -32.5s8 -26 8 -40zM329 0l-7.99805 47.9961c-5.33301 -6.66699 -11.166 -13.5 -17.499 -20.5s-14 -13.167 -23 -18.5s-19.667 -9.83301 -32 -13.5s-26.833 -5.5 -43.5 -5.5
c-56.667 0 -102.167 12.833 -136.5 38.5s-51.5 61.834 -51.5 108.501v31c0 22.667 5.66699 42.834 17 60.501s28 34.334 50 50.001s48.833 31.334 80.5 47.001s67.834 32.5 108.501 50.5v70c0 10 -2 17.333 -6 22s-11 7 -21 7c-10.667 0 -17.667 -2.33301 -21 -7
s-5 -12 -5 -22v-41h-183v48c0 22.667 5.66699 43 17 61s26.666 33.5 45.999 46.5s42 23 68 30s53.667 10.5 83 10.5s56.166 -3.5 80.499 -10.5s45.166 -17 62.499 -30s30.833 -28.5 40.5 -46.5s14.5 -38.333 14.5 -61v-331c0 -20 1.16699 -40.5 3.5 -61.5
s7.16602 -41.167 14.499 -60.5h-138zM300.002 757.996c0 13.333 -4.83301 24.833 -14.5 34.5s-21.167 14.5 -34.5 14.5s-24.833 -4.83301 -34.5 -14.5s-14.5 -21.167 -14.5 -34.5s4.83301 -24.666 14.5 -33.999s21.167 -14 34.5 -14s24.833 4.66699 34.5 14
s14.5 20.666 14.5 33.999zM273.002 257.996c-24 -12.667 -42.5 -23.5 -55.5 -32.5s-19.5 -22.167 -19.5 -39.5v-36c0 -22.667 12.333 -34 37 -34c25.333 0 38 11.333 38 34v108z" />
    <glyph glyph-name="ae" unicode="&#xe6;" horiz-adv-x="727" 
d="M700 137c0 -22 -5.66992 -42.1719 -17.0029 -60.5049s-26.666 -33.833 -45.999 -46.5s-42 -22.5 -68 -29.5s-53.667 -10.5 -83 -10.5c-34 0 -62.667 3.83301 -86 11.5s-44.666 19.834 -63.999 36.501c-13.333 -13.333 -30.666 -24.666 -51.999 -33.999s-48 -14 -80 -14
c-56.667 0 -102 13 -136 39s-51 62 -51 108v31c0 22.667 5.66699 42.834 17 60.501s27.833 34.334 49.5 50.001s48.334 31.334 80.001 47.001s67.834 32.5 108.501 50.5v70c0 10 -1.83301 17.333 -5.5 22s-10.5 7 -20.5 7c-10.667 0 -17.667 -2.33301 -21 -7s-5 -12 -5 -22
v-41h-183v48c0 22.667 5.66699 43 17 61s26.666 33.5 45.999 46.5s42 23 68 30s53.667 10.5 83 10.5c44 0 82.667 -13 116 -39c17.333 12 36 21.5 56 28.5s41 10.5 63 10.5c29.333 0 57 -3.5 83 -10.5s48.667 -17 68 -30s34.666 -28.5 45.999 -46.5s17 -38.333 17 -61v-195
h-251v-113c0 -10 3.5 -17.333 10.5 -22s15.833 -7 26.5 -7s19.667 2.33301 27 7s11 12 11 22v51h176v-59v0zM523.997 445.995c0 10 -3.66699 17.333 -11 22s-16.333 7 -27 7s-19.5 -2.33301 -26.5 -7s-10.5 -12 -10.5 -22v-84h75v84zM271.997 257.995
c-23.333 -12.667 -41.5 -23.5 -54.5 -32.5s-19.5 -22.167 -19.5 -39.5v-36c0 -22.667 12.333 -34 37 -34s37 11.333 37 34v108z" />
    <glyph glyph-name="ccedilla" unicode="&#xe7;" horiz-adv-x="478" 
d="M458 137c0 -21.333 -5.16406 -40.666 -15.4971 -57.999s-24.5 -32.333 -42.5 -45s-39 -22.834 -63 -30.501s-50 -12.167 -78 -13.5l-4 -51c14 10.667 29 16 45 16c18 0 32.833 -6.33301 44.5 -19s17.5 -27.667 17.5 -45v-91c0 -26.667 -8.66699 -49.334 -26 -68.001
s-39.333 -28 -66 -28s-48.834 9.33301 -66.501 28s-26.5 41.334 -26.5 68.001v27h77v-25c0 -4 1.5 -7.5 4.5 -10.5s6.83301 -4.5 11.5 -4.5c4 0 7.5 1.5 10.5 4.5s4.5 6.5 4.5 10.5v69c0 4 -1.5 7.5 -4.5 10.5s-6.5 4.5 -10.5 4.5c-4.66699 0 -8.5 -1.5 -11.5 -4.5
s-4.5 -6.5 -4.5 -10.5l-76 3l6 121c-44.667 8 -81.5 24.5 -110.5 49.5s-43.5 55.833 -43.5 92.5v316c0 22.667 5.66699 43 17 61s26.666 33.5 45.999 46.5s42 23 68 30s53.667 10.5 83 10.5s57 -3.5 83 -10.5s48.667 -17 68 -30s34.666 -28.5 45.999 -46.5
s17 -38.333 17 -61v-83h-176v76c0 10 -3.66699 17.333 -11 22s-16.333 7 -27 7c-10 0 -18.667 -2.33301 -26 -7s-11 -12 -11 -22v-301c0 -10 3.66699 -17.333 11 -22s16 -7 26 -7c10.667 0 19.667 2.33301 27 7s11 12 11 22v76h176v-84v0z" />
    <glyph glyph-name="egrave" unicode="&#xe8;" horiz-adv-x="485" 
d="M200 666l-79 184h147l26 -184h-94zM458 137c0 -22 -5.66699 -42.167 -17 -60.5s-26.666 -33.833 -45.999 -46.5s-42 -22.5 -68 -29.5s-53.667 -10.5 -83 -10.5s-57 3.5 -83 10.5s-48.667 16.833 -68 29.5s-34.666 28.167 -45.999 46.5s-17 38.5 -17 60.5v316
c0 22.667 5.66699 43 17 61s26.666 33.5 45.999 46.5s42 23 68 30s53.667 10.5 83 10.5s57 -3.5 83 -10.5s48.667 -17 68 -30s34.666 -28.5 45.999 -46.5s17 -38.333 17 -61v-195h-251v-113c0 -10 3.66699 -17.333 11 -22s16 -7 26 -7c10.667 0 19.667 2.33301 27 7
s11 12 11 22v51h176v-59v0zM282 446c0 10 -3.66699 17.333 -11 22s-16.333 7 -27 7c-10 0 -18.667 -2.33301 -26 -7s-11 -12 -11 -22v-84h75v84z" />
    <glyph glyph-name="eacute" unicode="&#xe9;" horiz-adv-x="485" 
d="M290 666h-94l26 184h147zM458 137c0 -22 -5.66699 -42.167 -17 -60.5s-26.666 -33.833 -45.999 -46.5s-42 -22.5 -68 -29.5s-53.667 -10.5 -83 -10.5s-57 3.5 -83 10.5s-48.667 16.833 -68 29.5s-34.666 28.167 -45.999 46.5s-17 38.5 -17 60.5v316
c0 22.667 5.66699 43 17 61s26.666 33.5 45.999 46.5s42 23 68 30s53.667 10.5 83 10.5s57 -3.5 83 -10.5s48.667 -17 68 -30s34.666 -28.5 45.999 -46.5s17 -38.333 17 -61v-195h-251v-113c0 -10 3.66699 -17.333 11 -22s16 -7 26 -7c10.667 0 19.667 2.33301 27 7
s11 12 11 22v51h176v-59v0zM282 446c0 10 -3.66699 17.333 -11 22s-16.333 7 -27 7c-10 0 -18.667 -2.33301 -26 -7s-11 -12 -11 -22v-84h75v84z" />
    <glyph glyph-name="ecircumflex" unicode="&#xea;" horiz-adv-x="485" 
d="M325 666l-79 89l-79 -89h-121l126 184h148l126 -184h-121zM458 137c0 -22 -5.66699 -42.167 -17 -60.5s-26.666 -33.833 -45.999 -46.5s-42 -22.5 -68 -29.5s-53.667 -10.5 -83 -10.5s-57 3.5 -83 10.5s-48.667 16.833 -68 29.5s-34.666 28.167 -45.999 46.5
s-17 38.5 -17 60.5v316c0 22.667 5.66699 43 17 61s26.666 33.5 45.999 46.5s42 23 68 30s53.667 10.5 83 10.5s57 -3.5 83 -10.5s48.667 -17 68 -30s34.666 -28.5 45.999 -46.5s17 -38.333 17 -61v-195h-251v-113c0 -10 3.66699 -17.333 11 -22s16 -7 26 -7
c10.667 0 19.667 2.33301 27 7s11 12 11 22v51h176v-59v0zM282 446c0 10 -3.66699 17.333 -11 22s-16.333 7 -27 7c-10 0 -18.667 -2.33301 -26 -7s-11 -12 -11 -22v-84h75v84z" />
    <glyph glyph-name="edieresis" unicode="&#xeb;" horiz-adv-x="485" 
d="M291 687v163h161v-163h-161zM38 687v163h161v-163h-161zM458 137c0 -22 -5.66699 -42.167 -17 -60.5s-26.666 -33.833 -45.999 -46.5s-42 -22.5 -68 -29.5s-53.667 -10.5 -83 -10.5s-57 3.5 -83 10.5s-48.667 16.833 -68 29.5s-34.666 28.167 -45.999 46.5
s-17 38.5 -17 60.5v316c0 22.667 5.66699 43 17 61s26.666 33.5 45.999 46.5s42 23 68 30s53.667 10.5 83 10.5s57 -3.5 83 -10.5s48.667 -17 68 -30s34.666 -28.5 45.999 -46.5s17 -38.333 17 -61v-195h-251v-113c0 -10 3.66699 -17.333 11 -22s16 -7 26 -7
c10.667 0 19.667 2.33301 27 7s11 12 11 22v51h176v-59v0zM282 446c0 10 -3.66699 17.333 -11 22s-16.333 7 -27 7c-10 0 -18.667 -2.33301 -26 -7s-11 -12 -11 -22v-84h75v84z" />
    <glyph glyph-name="igrave" unicode="&#xec;" horiz-adv-x="249" 
d="M76 666l-79 184h147l26 -184h-94zM36 0v590h177v-590h-177z" />
    <glyph glyph-name="iacute" unicode="&#xed;" horiz-adv-x="249" 
d="M166 666h-94l26 184h147zM36 0v590h177v-590h-177z" />
    <glyph glyph-name="icircumflex" unicode="&#xee;" horiz-adv-x="249" 
d="M201 666l-79 89l-79 -89h-121l126 184h148l126 -184h-121zM36 0v590h177v-590h-177z" />
    <glyph glyph-name="idieresis" unicode="&#xef;" horiz-adv-x="249" 
d="M171 687v163h161v-163h-161zM-82 687v163h161v-163h-161zM36 0v590h177v-590h-177z" />
    <glyph glyph-name="ntilde" unicode="&#xf1;" horiz-adv-x="497" 
d="M455 830c0 -47.333 -12.166 -83.833 -36.499 -109.5s-58.833 -38.5 -103.5 -38.5c-16 0 -29.667 2.33301 -41 7s-21.833 10 -31.5 16s-18.667 11.333 -27 16s-17.5 7 -27.5 7c-16.667 0 -29.667 -3.66699 -39 -11s-14 -19 -14 -35h-79c0 47.333 12.167 83.833 36.5 109.5
s58.833 38.5 103.5 38.5c16 0 29.667 -2.33301 41 -7s21.666 -10 30.999 -16s18.333 -11.333 27 -16s18 -7 28 -7c16 0 28.833 3.66699 38.5 11s14.5 19 14.5 35h79v0zM288.001 0l0.000976562 445.998c0 10 -3.66699 17.333 -11 22s-16.333 7 -27 7
c-10 0 -18.667 -2.33301 -26 -7s-11 -12 -11 -22v-446h-177v590h163l8 -46c12.667 14.667 28 27.834 46 39.501s42 17.5 72 17.5c19.333 0 37.5 -2.33301 54.5 -7s31.667 -11.167 44 -19.5s22.166 -18.666 29.499 -30.999s11 -26.5 11 -42.5v-501h-176z" />
    <glyph glyph-name="ograve" unicode="&#xf2;" horiz-adv-x="488" 
d="M194 666l-79 184h147l26 -184h-94zM458 137c0 -22 -5.66699 -42.167 -17 -60.5s-26.666 -33.833 -45.999 -46.5s-42 -22.5 -68 -29.5s-53.667 -10.5 -83 -10.5s-57 3.5 -83 10.5s-48.667 16.833 -68 29.5s-34.666 28.167 -45.999 46.5s-17 38.5 -17 60.5v316
c0 22.667 5.66699 43 17 61s26.666 33.5 45.999 46.5s42 23 68 30s53.667 10.5 83 10.5s57 -3.5 83 -10.5s48.667 -17 68 -30s34.666 -28.5 45.999 -46.5s17 -38.333 17 -61v-316v0zM282 446c0 10 -3.66699 17.333 -11 22s-16.333 7 -27 7s-19.5 -2.33301 -26.5 -7
s-10.5 -12 -10.5 -22v-301c0 -10 3.5 -17.333 10.5 -22s15.833 -7 26.5 -7s19.667 2.33301 27 7s11 12 11 22v301z" />
    <glyph glyph-name="oacute" unicode="&#xf3;" horiz-adv-x="488" 
d="M286 666h-94l26 184h147zM458 137c0 -22 -5.66699 -42.167 -17 -60.5s-26.666 -33.833 -45.999 -46.5s-42 -22.5 -68 -29.5s-53.667 -10.5 -83 -10.5s-57 3.5 -83 10.5s-48.667 16.833 -68 29.5s-34.666 28.167 -45.999 46.5s-17 38.5 -17 60.5v316
c0 22.667 5.66699 43 17 61s26.666 33.5 45.999 46.5s42 23 68 30s53.667 10.5 83 10.5s57 -3.5 83 -10.5s48.667 -17 68 -30s34.666 -28.5 45.999 -46.5s17 -38.333 17 -61v-316v0zM282 446c0 10 -3.66699 17.333 -11 22s-16.333 7 -27 7s-19.5 -2.33301 -26.5 -7
s-10.5 -12 -10.5 -22v-301c0 -10 3.5 -17.333 10.5 -22s15.833 -7 26.5 -7s19.667 2.33301 27 7s11 12 11 22v301z" />
    <glyph glyph-name="ocircumflex" unicode="&#xf4;" horiz-adv-x="488" 
d="M323 666l-79 89l-79 -89h-121l126 184h148l126 -184h-121zM458 137c0 -22 -5.66699 -42.167 -17 -60.5s-26.666 -33.833 -45.999 -46.5s-42 -22.5 -68 -29.5s-53.667 -10.5 -83 -10.5s-57 3.5 -83 10.5s-48.667 16.833 -68 29.5s-34.666 28.167 -45.999 46.5
s-17 38.5 -17 60.5v316c0 22.667 5.66699 43 17 61s26.666 33.5 45.999 46.5s42 23 68 30s53.667 10.5 83 10.5s57 -3.5 83 -10.5s48.667 -17 68 -30s34.666 -28.5 45.999 -46.5s17 -38.333 17 -61v-316v0zM282 446c0 10 -3.66699 17.333 -11 22s-16.333 7 -27 7
s-19.5 -2.33301 -26.5 -7s-10.5 -12 -10.5 -22v-301c0 -10 3.5 -17.333 10.5 -22s15.833 -7 26.5 -7s19.667 2.33301 27 7s11 12 11 22v301z" />
    <glyph glyph-name="otilde" unicode="&#xf5;" horiz-adv-x="488" 
d="M451 830c0 -47.333 -12.166 -83.833 -36.499 -109.5s-58.833 -38.5 -103.5 -38.5c-16 0 -29.667 2.33301 -41 7s-21.833 10 -31.5 16s-18.667 11.333 -27 16s-17.5 7 -27.5 7c-16.667 0 -29.667 -3.66699 -39 -11s-14 -19 -14 -35h-79c0 47.333 12.167 83.833 36.5 109.5
s58.833 38.5 103.5 38.5c16 0 29.667 -2.33301 41 -7s21.666 -10 30.999 -16s18.333 -11.333 27 -16s18 -7 28 -7c16 0 28.833 3.66699 38.5 11s14.5 19 14.5 35h79v0zM458.001 137c0 -22 -5.66699 -42.167 -17 -60.5s-26.666 -33.833 -45.999 -46.5s-42 -22.5 -68 -29.5
s-53.667 -10.5 -83 -10.5s-57 3.5 -83 10.5s-48.667 16.833 -68 29.5s-34.666 28.167 -45.999 46.5s-17 38.5 -17 60.5v316c0 22.667 5.66699 43 17 61s26.666 33.5 45.999 46.5s42 23 68 30s53.667 10.5 83 10.5s57 -3.5 83 -10.5s48.667 -17 68 -30
s34.666 -28.5 45.999 -46.5s17 -38.333 17 -61v-316v0zM282.001 446c0 10 -3.66699 17.333 -11 22s-16.333 7 -27 7s-19.5 -2.33301 -26.5 -7s-10.5 -12 -10.5 -22v-301c0 -10 3.5 -17.333 10.5 -22s15.833 -7 26.5 -7s19.667 2.33301 27 7s11 12 11 22v301z" />
    <glyph glyph-name="odieresis" unicode="&#xf6;" horiz-adv-x="488" 
d="M291 687v163h161v-163h-161zM38 687v163h161v-163h-161zM458 137c0 -22 -5.66699 -42.167 -17 -60.5s-26.666 -33.833 -45.999 -46.5s-42 -22.5 -68 -29.5s-53.667 -10.5 -83 -10.5s-57 3.5 -83 10.5s-48.667 16.833 -68 29.5s-34.666 28.167 -45.999 46.5
s-17 38.5 -17 60.5v316c0 22.667 5.66699 43 17 61s26.666 33.5 45.999 46.5s42 23 68 30s53.667 10.5 83 10.5s57 -3.5 83 -10.5s48.667 -17 68 -30s34.666 -28.5 45.999 -46.5s17 -38.333 17 -61v-316v0zM282 446c0 10 -3.66699 17.333 -11 22s-16.333 7 -27 7
s-19.5 -2.33301 -26.5 -7s-10.5 -12 -10.5 -22v-301c0 -10 3.5 -17.333 10.5 -22s15.833 -7 26.5 -7s19.667 2.33301 27 7s11 12 11 22v301z" />
    <glyph glyph-name="oslash" unicode="&#xf8;" horiz-adv-x="488" 
d="M458 137c0 -22 -5.66602 -42.167 -16.999 -60.5s-26.666 -33.833 -45.999 -46.5s-42 -22.5 -68 -29.5s-53.667 -10.5 -83 -10.5c-32 0 -61.333 4 -88 12l-8 -32h-118l26 93c-17.333 21.333 -26 46 -26 74v316c0 22.667 5.66699 43 17 61s26.666 33.5 45.999 46.5
s42 23 68 30s53.667 10.5 83 10.5c31.333 0 60.666 -4 87.999 -12l8 32h118l-27 -93c18 -22 27 -47 27 -75v-316v0zM282.001 446c0 10 -3.66699 17.333 -11 22s-16.333 7 -27 7s-19.5 -2.33301 -26.5 -7s-10.5 -12 -10.5 -22v-301c0 -10 3.5 -17.333 10.5 -22
s15.833 -7 26.5 -7s19.667 2.33301 27 7s11 12 11 22v301z" />
    <glyph glyph-name="ugrave" unicode="&#xf9;" horiz-adv-x="496" 
d="M200 666l-79 184h147l26 -184h-94zM298 0l-8.00098 46c-11.333 -14 -26.333 -26.833 -45 -38.5s-43 -17.5 -73 -17.5c-19.333 0 -37.5 2.16699 -54.5 6.5s-31.667 10.833 -44 19.5s-22.166 19 -29.499 31s-11 26 -11 42v501h176v-445c0 -10 3.66699 -17.333 11 -22
s16.333 -7 27 -7c10 0 18.667 2.33301 26 7s11 12 11 22v445h176v-590h-162z" />
    <glyph glyph-name="uacute" unicode="&#xfa;" horiz-adv-x="496" 
d="M294 666h-94l26 184h147zM298 0l-8.00098 46c-11.333 -14 -26.333 -26.833 -45 -38.5s-43 -17.5 -73 -17.5c-19.333 0 -37.5 2.16699 -54.5 6.5s-31.667 10.833 -44 19.5s-22.166 19 -29.499 31s-11 26 -11 42v501h176v-445c0 -10 3.66699 -17.333 11 -22
s16.333 -7 27 -7c10 0 18.667 2.33301 26 7s11 12 11 22v445h176v-590h-162z" />
    <glyph glyph-name="ucircumflex" unicode="&#xfb;" horiz-adv-x="496" 
d="M321 666l-79 89l-79 -89h-121l126 184h148l126 -184h-121zM298 0l-8.00098 46c-11.333 -14 -26.333 -26.833 -45 -38.5s-43 -17.5 -73 -17.5c-19.333 0 -37.5 2.16699 -54.5 6.5s-31.667 10.833 -44 19.5s-22.166 19 -29.499 31s-11 26 -11 42v501h176v-445
c0 -10 3.66699 -17.333 11 -22s16.333 -7 27 -7c10 0 18.667 2.33301 26 7s11 12 11 22v445h176v-590h-162z" />
    <glyph glyph-name="udieresis" unicode="&#xfc;" horiz-adv-x="496" 
d="M291 687v163h161v-163h-161zM38 687v163h161v-163h-161zM298 0l-8.00098 46c-11.333 -14 -26.333 -26.833 -45 -38.5s-43 -17.5 -73 -17.5c-19.333 0 -37.5 2.16699 -54.5 6.5s-31.667 10.833 -44 19.5s-22.166 19 -29.499 31s-11 26 -11 42v501h176v-445
c0 -10 3.66699 -17.333 11 -22s16.333 -7 27 -7c10 0 18.667 2.33301 26 7s11 12 11 22v445h176v-590h-162z" />
    <glyph glyph-name="ydieresis" unicode="&#xff;" horiz-adv-x="484" 
d="M287 687v163h161v-163h-161zM34 687v163h161v-163h-161zM290 -111c-4 -16 -9.66602 -30.666 -16.999 -43.999s-17 -24.833 -29 -34.5s-27 -17.167 -45 -22.5s-40 -8 -66 -8h-87v135h55c11.333 0 19.666 2.16699 24.999 6.5s9.33301 10.166 12 17.499l31 95l-152 556h172
l58 -323l57 323h172z" />
    <glyph glyph-name="dotlessi" unicode="&#x131;" horiz-adv-x="249" 
d="M36 0v590h177v-590h-177z" />
    <glyph glyph-name="OE" unicode="&#x152;" horiz-adv-x="656" 
d="M209 0c-22 0 -43.667 2.66895 -65 8.00195s-40.5 14.166 -57.5 26.499s-30.667 28.5 -41 48.5s-15.5 44.333 -15.5 73v488c0 28.667 5.16699 53 15.5 73s24 36.167 41 48.5s36.167 21.166 57.5 26.499s43 8 65 8h424v-142h-178v-172h117v-152h-117v-182h178v-152h-424z
M271 648.002h-36c-21.333 0 -32 -10.667 -32 -32v-433c0 -21.333 10.667 -32 32 -32h36v497z" />
    <glyph glyph-name="oe" unicode="&#x153;" horiz-adv-x="736" 
d="M709 137c0 -22 -5.66699 -42.167 -17 -60.5s-26.666 -33.833 -45.999 -46.5s-42 -22.5 -68 -29.5s-53.667 -10.5 -83 -10.5c-23.333 0 -45.666 3.83301 -66.999 11.5s-40.666 18.5 -57.999 32.5c-35.333 -29.333 -77.333 -44 -126 -44c-29.333 0 -57 3.5 -83 10.5
s-48.667 16.833 -68 29.5s-34.666 28.167 -45.999 46.5s-17 38.5 -17 60.5v316c0 22.667 5.66699 43 17 61s26.666 33.5 45.999 46.5s42 23 68 30s53.667 10.5 83 10.5c23.333 0 45.833 -3.83301 67.5 -11.5s41.167 -18.5 58.5 -32.5c17.333 14 36.666 24.833 57.999 32.5
s43.666 11.5 66.999 11.5c29.333 0 57 -3.5 83 -10.5s48.667 -17 68 -30s34.666 -28.5 45.999 -46.5s17 -38.333 17 -61v-195h-251v-113c0 -10 3.5 -17.333 10.5 -22s15.833 -7 26.5 -7s19.5 2.33301 26.5 7s10.5 12 10.5 22v51h177v-59v0zM532 446
c0 10 -3.5 17.333 -10.5 22s-15.833 7 -26.5 7s-19.5 -2.33301 -26.5 -7s-10.5 -12 -10.5 -22v-84h74v84zM281 446c0 10 -3.66699 17.333 -11 22s-16 7 -26 7c-10.667 0 -19.667 -2.33301 -27 -7s-11 -12 -11 -22v-301c0 -10 3.66699 -17.333 11 -22s16.333 -7 27 -7
c10 0 18.667 2.33301 26 7s11 12 11 22v301z" />
    <glyph glyph-name="Ydieresis" unicode="&#x178;" horiz-adv-x="499" 
d="M289 887v163h161v-163h-161zM36 887v163h161v-163h-161zM335 345v-345h-186v345l-154 455h185l73 -267l65 267h176z" />
    <glyph glyph-name="florin" unicode="&#x192;" horiz-adv-x="390" 
d="M338 665c-6.66699 0 -12.6689 -2.33301 -18.002 -7s-8.66602 -10.334 -9.99902 -17.001l-21 -137h78v-120h-96l-75 -484c-2 -14.667 -6.83301 -28.667 -14.5 -42s-17.167 -25 -28.5 -35s-24 -18 -38 -24s-29 -9 -45 -9h-127v135h57c7.33301 0 13.5 2.33301 18.5 7
s8.16699 10.334 9.5 17.001l66 435h-69v120h88l28 187c4.66699 31.333 18.834 57.333 42.501 78s51.5 31 83.5 31h126v-135h-55z" />
    <glyph glyph-name="circumflex" unicode="&#x2c6;" horiz-adv-x="432" 
d="M297 616l-79 89l-79 -89h-121l126 184h148l126 -184h-121z" />
    <glyph glyph-name="breve" unicode="&#x2d8;" horiz-adv-x="379" 
d="M342 800c0 -20.667 -4.00195 -40.167 -12.002 -58.5s-18.833 -34.333 -32.5 -48s-29.834 -24.5 -48.501 -32.5s-38.667 -12 -60 -12s-41.166 4 -59.499 12s-34.166 18.833 -47.499 32.5s-24 29.667 -32 48s-12 37.833 -12 58.5h79c0 -19.333 6.83301 -36 20.5 -50
s30.834 -21 51.501 -21c20 0 37.333 7 52 21s22 30.667 22 50h79v0z" />
    <glyph glyph-name="dotaccent" unicode="&#x2d9;" horiz-adv-x="249" 
d="M44 637v163h161v-163h-161z" />
    <glyph glyph-name="ring" unicode="&#x2da;" horiz-adv-x="274" 
d="M238 708c0 -14 -2.66699 -27.167 -8 -39.5s-12.5 -23 -21.5 -32s-19.667 -16.167 -32 -21.5s-25.5 -8 -39.5 -8s-27.167 2.66699 -39.5 8s-23 12.5 -32 21.5s-16.167 19.667 -21.5 32s-8 25.5 -8 39.5s2.66699 27.333 8 40s12.5 23.5 21.5 32.5s19.667 16.167 32 21.5
s25.5 8 39.5 8s27.167 -2.66699 39.5 -8s23 -12.5 32 -21.5s16.167 -19.833 21.5 -32.5s8 -26 8 -40zM186 708c0 13.333 -4.83301 24.833 -14.5 34.5s-21.167 14.5 -34.5 14.5s-24.833 -4.83301 -34.5 -14.5s-14.5 -21.167 -14.5 -34.5s4.83301 -24.666 14.5 -33.999
s21.167 -14 34.5 -14s24.833 4.66699 34.5 14s14.5 20.666 14.5 33.999z" />
    <glyph glyph-name="tilde" unicode="&#x2dc;" horiz-adv-x="455" 
d="M427 810c0 -47.333 -12.166 -83.833 -36.499 -109.5s-58.833 -38.5 -103.5 -38.5c-16 0 -29.667 2.33301 -41 7s-21.833 10 -31.5 16s-18.667 11.333 -27 16s-17.5 7 -27.5 7c-16.667 0 -29.667 -3.66699 -39 -11s-14 -19 -14 -35h-79c0 47.333 12.167 83.833 36.5 109.5
s58.833 38.5 103.5 38.5c16 0 29.667 -2.33301 41 -7s21.666 -10 30.999 -16s18.333 -11.333 27 -16s18 -7 28 -7c16 0 28.833 3.66699 38.5 11s14.5 19 14.5 35h79v0z" />
    <glyph glyph-name="endash" unicode="&#x2013;" horiz-adv-x="572" 
d="M36 300v153h500v-153h-500z" />
    <glyph glyph-name="emdash" unicode="&#x2014;" horiz-adv-x="1072" 
d="M36 300v153h1000v-153h-1000z" />
    <glyph glyph-name="quoteleft" unicode="&#x2018;" horiz-adv-x="233" 
d="M130 720h67v-163h-161v163l116 100h54z" />
    <glyph glyph-name="quoteright" unicode="&#x2019;" horiz-adv-x="234" 
d="M81 537h-53l76 100h-68v163h162v-163z" />
    <glyph glyph-name="quotesinglbase" unicode="&#x201a;" horiz-adv-x="233" 
d="M81 -100h-53l76 100h-68v163h161v-163z" />
    <glyph glyph-name="quotedblleft" unicode="&#x201c;" horiz-adv-x="448" 
d="M344 720h68v-163h-161v163l116 100h53zM130 720h67v-163h-161v163l116 100h54z" />
    <glyph glyph-name="quotedblright" unicode="&#x201d;" horiz-adv-x="448" 
d="M296 537h-54l76 100h-67v163h161v-163zM81 537h-53l76 100h-68v163h162v-163z" />
    <glyph glyph-name="quotedblbase" unicode="&#x201e;" horiz-adv-x="448" 
d="M296 -100h-54l76 100h-67v163h161v-163zM81 -100h-53l76 100h-68v163h162v-163z" />
    <glyph glyph-name="dagger" unicode="&#x2020;" horiz-adv-x="461" 
d="M310 502v-270h-167v270h-113v156h113v142h167v-142h121v-156h-121z" />
    <glyph glyph-name="daggerdbl" unicode="&#x2021;" horiz-adv-x="461" 
d="M310 502v-203h113v-157h-113v-142h-167v142h-122v157h122v203h-113v156h113v142h167v-142h121v-156h-121z" />
    <glyph glyph-name="bullet" unicode="&#x2022;" horiz-adv-x="253" 
d="M238 400c0 -15.333 -3 -29.666 -9 -42.999s-14 -25 -24 -35s-21.667 -18 -35 -24s-27.666 -9 -42.999 -9s-29.833 3 -43.5 9s-25.5 14 -35.5 24s-18 21.667 -24 35s-9 27.666 -9 42.999s3 29.833 9 43.5s14 25.5 24 35.5s21.833 17.833 35.5 23.5s28.167 8.5 43.5 8.5
s29.666 -2.83301 42.999 -8.5s25 -13.5 35 -23.5s18 -21.833 24 -35.5s9 -28.167 9 -43.5z" />
    <glyph glyph-name="ellipsis" unicode="&#x2026;" horiz-adv-x="749" 
d="M552 0v163h161v-163h-161zM294 0v163h161v-163h-161zM36 0v163h161v-163h-161z" />
    <glyph glyph-name="perthousand" unicode="&#x2030;" horiz-adv-x="1441" 
d="M1411 137c0 -22 -5.66699 -42.167 -17 -60.5s-26.333 -33.833 -45 -46.5s-39.834 -22.5 -63.501 -29.5s-47.834 -10.5 -72.501 -10.5s-49 3.5 -73 10.5s-45.333 16.833 -64 29.5s-33.667 28.167 -45 46.5s-17 38.5 -17 60.5v162c0 22 5.66699 42.167 17 60.5
s26.333 33.833 45 46.5s40 22.5 64 29.5s48.333 10.5 73 10.5s48.834 -3.5 72.501 -10.5s44.834 -16.833 63.501 -29.5s33.667 -28.167 45 -46.5s17 -38.5 17 -60.5v-162v0zM975 137c0 -22 -5.66699 -42.167 -17 -60.5s-26.333 -33.833 -45 -46.5
s-39.834 -22.5 -63.501 -29.5s-47.834 -10.5 -72.501 -10.5s-49 3.5 -73 10.5s-45.333 16.833 -64 29.5s-33.667 28.167 -45 46.5s-17 38.5 -17 60.5v162c0 22 5.66699 42.167 17 60.5s26.333 33.833 45 46.5s40 22.5 64 29.5s48.333 10.5 73 10.5s48.834 -3.5 72.501 -10.5
s44.834 -16.833 63.501 -29.5s33.667 -28.167 45 -46.5s17 -38.5 17 -60.5v-162v0zM351 0h-154l457 800h154zM427 502c0 -22.667 -5.66699 -43 -17 -61s-26.333 -33.5 -45 -46.5s-39.834 -23 -63.501 -30s-47.834 -10.5 -72.501 -10.5s-49 3.5 -73 10.5s-45.333 17 -64 30
s-33.667 28.5 -45 46.5s-17 38.333 -17 61v161c0 22 5.66699 42.167 17 60.5s26.333 33.833 45 46.5s40 22.5 64 29.5s48.333 10.5 73 10.5s48.834 -3.5 72.501 -10.5s44.834 -16.833 63.501 -29.5s33.667 -28.167 45 -46.5s17 -38.5 17 -60.5v-161v0zM1244 301
c0 10 -3 17.333 -9 22s-13.333 7 -22 7c-9.33301 0 -17 -2.33301 -23 -7s-9 -12 -9 -22v-166c0 -10 3 -17.333 9 -22s13.667 -7 23 -7c8.66699 0 16 2.33301 22 7s9 12 9 22v166zM808 301c0 10 -3 17.333 -9 22s-13.333 7 -22 7c-9.33301 0 -17 -2.33301 -23 -7
s-9 -12 -9 -22v-166c0 -10 3 -17.333 9 -22s13.667 -7 23 -7c8.66699 0 16 2.33301 22 7s9 12 9 22v166zM260 666c0 10 -3 17.333 -9 22s-13.333 7 -22 7s-16 -2.33301 -22 -7s-9 -12 -9 -22v-167c0 -10 3 -17.333 9 -22s13.333 -7 22 -7s16 2.33301 22 7s9 12 9 22v167z
" />
    <glyph glyph-name="guilsinglleft" unicode="&#x2039;" horiz-adv-x="364" 
d="M138 0l-109 295l109 295h196l-113 -295l113 -295h-196z" />
    <glyph glyph-name="guilsinglright" unicode="&#x203a;" horiz-adv-x="363" 
d="M226 0h-196l113 295l-113 295h196l108 -295z" />
    <glyph glyph-name="fraction" unicode="&#x2044;" horiz-adv-x="697" 
d="M182 0h-182l515 800h182z" />
    <glyph glyph-name="trademark" unicode="&#x2122;" horiz-adv-x="1016" 
d="M837 415v245l-65 -245h-116l-74 245v-245h-119v385h212l48 -169l49 169h217v-385h-152zM296 684v-269h-152v269h-117v116h387v-116h-118z" />
    <glyph glyph-name="apple" unicode="&#xf8ff;" horiz-adv-x="967" 
d="M100 0v750h767v-750h-767zM852 -104c0 0.666992 -0.167969 1.66504 -0.500977 2.99805s-0.5 2.33301 -0.5 3l-2 13c-2 -3.33301 -3.66699 -6.33301 -5 -9l-3.5 -7c-1 -2 -1.5 -3.33301 -1.5 -4h-2l-10 20l-2 -13v-3c0 -1.33301 -0.333008 -2.33301 -1 -3h-6
c1.33301 4 2 7.66699 2 11l2 11c0.666992 1.33301 1 3.33301 1 6s0.333008 4.66699 1 6h1c0.666992 -1.33301 1.33398 -2.5 2.00098 -3.5s1 -2.16699 1 -3.5l10 -18l10 18l2 4c0.666992 1.33301 1 2.33301 1 3h1c1.33301 -4 2 -8 2 -12l2 -11
c0.666992 -1.33301 1 -3.16602 1 -5.49902s0.333008 -4.16602 1 -5.49902h-6zM804.999 -87.002c0 -5.33301 -1.49902 -9.66602 -4.49902 -12.999s-7.16699 -5 -12.5 -5s-9.5 1.66699 -12.5 5s-4.5 7.33301 -4.5 12c0 5.33301 1.66699 9.66602 5 12.999s7.66602 5 12.999 5
c4.66699 0 8.5 -1.66699 11.5 -5s4.5 -7.33301 4.5 -12zM756 -102.002c-2 -2 -5.33203 -2.99902 -9.99902 -2.99902c-12 0 -18 5.66699 -18 17c0 5.33301 1.66699 9.66602 5 12.999s7.66602 5 12.999 5c4 0 7.66699 -1 11 -3l-2 -5c-2 2 -5 3 -9 3
c-7.33301 0 -11 -4 -11 -12c0 -8.66699 4 -13 12 -13c2.66699 0 6 1.33301 10 4zM715.001 -101.001c0 -2.66699 -1.33301 -4 -4 -4s-4 1.33301 -4 4s1.33301 4 4 4s4 -1.33301 4 -4zM688.001 -90.001l-0.00195312 -6.99805v-7h-7v11v3l-5 8
c-1.33301 1.33301 -2.66602 3.16602 -3.99902 5.49902s-2.66602 4.16602 -3.99902 5.49902l7 1l10 -15l2 4c1.33301 1.33301 2.5 3 3.5 5s2.16699 3.66699 3.5 5h7zM647.999 -103.999c0.666992 1.33301 1 3.16992 1 5.50293v5.5v4h-16v-8v-7h-7
c0.666992 1.33301 1 3.16602 1 5.49902v5.5v11v5.5c0 2.33301 -0.333008 4.16602 -1 5.49902h7v-7v-6h16v2v5.5c0 2.33301 -0.333008 4.16602 -1 5.49902h7v-7v-19v-7h-7zM611.999 -80.9951c0 -8 -5 -11.998 -15 -11.998h-3v-4v-7h-7c0.666992 1.33301 1 3.16602 1 5.49902
v5.5v11v5.5c0 2.33301 -0.333008 4.16602 -1 5.49902c1.33301 0 3 0.166992 5 0.5s4 0.5 6 0.5c4.66699 0 8.16699 -1.16699 10.5 -3.5s3.5 -4.83301 3.5 -7.5zM567.999 -103.993l-3.99902 7.99902h-14v-1c-1.33301 -2.66699 -2.33301 -5 -3 -7h-7l12 24
c1.33301 2.66699 2.66602 6 3.99902 10h2l11 -24c2 -3.33301 3.66699 -6.66602 5 -9.99902h-6zM526 -103.994l-8 13h-5v-6v-7h-7v11v11v11h10c9.33301 0 14 -3 14 -9c0 -4.66699 -2.33301 -8 -7 -10l5 -7c0.666992 -1.33301 1.5 -2.5 2.5 -3.5s1.83301 -2.16699 2.5 -3.5h-7
zM490 -100.994c-4 -2.66699 -8.33398 -3.99902 -13.001 -3.99902c-5.33301 0 -9.66602 1.5 -12.999 4.5s-5 7.16699 -5 12.5s1.83301 9.66602 5.5 12.999s8.16699 5 13.5 5c3.33301 0 7 -1.33301 11 -4l-2 -5c-2.66699 2.66699 -6 4 -10 4c-7.33301 0 -11 -4.33301 -11 -13
c0 -8 4 -12 12 -12c1.33301 0 3.33301 0.666992 6 2v4v3h-3h-6v5h7h8v-11v-4v0zM445.999 -86.9932c0 -5.33301 -1.49902 -9.66602 -4.49902 -12.999s-7.16699 -5 -12.5 -5s-9.5 1.66699 -12.5 5s-4.5 7.33301 -4.5 12c0 5.33301 1.66699 9.66602 5 12.999
s7.66602 5 12.999 5c4.66699 0 8.5 -1.66699 11.5 -5s4.5 -7.33301 4.5 -12zM400 -80.9932c0 -8 -5 -12 -15 -12h-3v-4v-4c0 -1.33301 0.333008 -2.33301 1 -3h-7v11v11v11c0.666992 0 2 0.166992 4 0.5s4 0.5 6 0.5c4.66699 0 8.16699 -1.16699 10.5 -3.5
s3.5 -4.83301 3.5 -7.5zM350 -89.9932l-0.00195312 -6.99805v-7h-7v11v3l-5 8c-1.33301 1.33301 -2.66602 3.16602 -3.99902 5.49902s-2.66602 4.16602 -3.99902 5.49902l7 1l10 -15l2 4c1.33301 1.33301 2.5 3 3.5 5s2.16699 3.66699 3.5 5h7zM321.998 -69.9912
c-0.666992 -1.33301 -1 -3.33203 -1 -5.99902h-11v-3v-18v-7h-7c0.666992 1.33301 1 3.16602 1 5.49902v5.5v10v7h-12v6c3.33301 -0.666992 8.33301 -1 15 -1s11.667 0.333008 15 1zM279.998 -100.99c0 -2.66699 -1.33301 -4 -4 -4c-2 0 -3 1.33301 -3 4s1.33301 4 4 4
c2 0 3 -1.33301 3 -4zM256.998 -94.9902c-1.33301 -2 -2.16602 -3.66797 -2.49902 -5.00098s-0.833008 -2.66602 -1.5 -3.99902l-1 -1l-9 22l-6 -12c-1.33301 -2.66699 -2.66602 -6 -3.99902 -10h-1l-9 25c-0.666992 1.33301 -1.33398 2.83301 -2.00098 4.5
s-1.33398 3.16699 -2.00098 4.5l7 1l7 -22l6 13c0 0.666992 0.5 2 1.5 4s1.5 3.66699 1.5 5h1l9 -22l5 12l3 9h6zM200.998 -94.9912c-2 -4 -3.00195 -7 -3.00195 -9l-2 -1l-9 22l-6 -12c-1.33301 -2.66699 -2.66602 -6 -3.99902 -10h-1l-9 25
c-1.33301 4 -2.66602 7 -3.99902 9l7 1l7 -22l6 13c0 0.666992 0.5 2 1.5 4s1.5 3.66699 1.5 5h2l9 -22l4 12l3 9h6zM144.996 -94.9912l-3.00195 -9l-1 -1l-10 22l-5 -12l-2.5 -5l-2.5 -5h-1l-9 25l-3 9l6 1l8 -22l5 13c0.666992 0.666992 1.33398 2 2.00098 4
s1.33398 3.66699 2.00098 5h1l9 -22l4 12l3 9h7zM819.994 520.009c0 1.33301 -0.664062 2 -1.99707 2c-4 1.33301 -6.33301 2.5 -7 3.5s-1.33398 2.83301 -2.00098 5.5l-8 33c-0.666992 0.666992 -1 2 -1 4c0 2.66699 2.66699 4.33398 8 5.00098c0.666992 0 1 0.333008 1 1
c0 1.33301 -0.666992 2 -2 2c-2.66699 0 -5 -0.166992 -7 -0.5s-4.33301 -0.5 -7 -0.5c-3.33301 0 -5.66602 0.166992 -6.99902 0.5s-3.33301 0.5 -6 0.5v-1c0 -1.33301 0.333008 -2 1 -2c3.33301 -0.666992 5.33301 -1.66699 6 -3l3 -6l3 -14h-25l-4 14v4
c0 2.66699 2.33301 4.33398 7 5.00098v1c0 1.33301 -0.333008 2 -1 2c-3.33301 0 -5.66602 -0.166992 -6.99902 -0.5s-3.66602 -0.5 -6.99902 -0.5c-2.66699 0 -4.83398 0.166992 -6.50098 0.5s-3.83398 0.5 -6.50098 0.5v-1v-2
c4.66699 -0.666992 7.33398 -1.66699 8.00098 -3l3 -6l7 -33c0.666992 -0.666992 1 -2 1 -4c0 -2.66699 -2.66699 -4.33398 -8 -5.00098v-1v-1c0 -0.666992 0.333008 -1 1 -1c3.33301 0 5.83301 0.166992 7.5 0.5s4.16699 0.5 7.5 0.5s5.5 -0.166992 6.5 -0.5
s2.83301 -0.5 5.5 -0.5v1v2c-4.66699 1.33301 -7.33398 2.5 -8.00098 3.5s-1 2.83301 -1 5.5l-4 15h25l3 -15c0.666992 -0.666992 1 -2 1 -4c0 -2.66699 -2.33301 -4.33398 -7 -5.00098v-1v-1c0 -0.666992 0.333008 -1 1 -1c3.33301 0 5.66602 0.166992 6.99902 0.5
s3.66602 0.5 6.99902 0.5s5.66602 -0.166992 6.99902 -0.5s3.33301 -0.5 6 -0.5zM558.997 686.009c-1.33301 2.66699 -2.00098 4.83496 -2.00098 6.50195s-0.666992 3.5 -2 5.5c-1.33301 -0.666992 -2.66602 -1 -3.99902 -1h-11h-11.5c-1.66699 0 -3.16699 0.333008 -4.5 1
c0 -2 -0.166992 -3.83301 -0.5 -5.5s-0.833008 -3.83398 -1.5 -6.50098h1h1c1.33301 3.33301 2.33301 5.66602 3 6.99902s2.66699 2 6 2c2 0 3 -1 3 -3v-22c0 -3.33301 -1.66699 -5.33301 -5 -6c-0.666992 0 -1 -0.333008 -1 -1s0.333008 -1 1 -1h9h8
c0.666992 0 1 0.333008 1 1s-0.333008 1 -1 1c-3.33301 0.666992 -5 2.66699 -5 6v22c0 2 1 3 3 3c5.33301 0 9 -3 11 -9h2v0zM693.996 540.01c0 10 -3.66699 18.833 -11 26.5s-15.666 11.5 -24.999 11.5c-4.66699 0 -9.5 -1.66699 -14.5 -5s-7.5 -9 -7.5 -17
c0 -10.667 3.66699 -19.667 11 -27s15.666 -11 24.999 -11c4.66699 0 9.5 1.66699 14.5 5s7.5 9 7.5 17zM502.996 663.01v0.999023c-3.33301 0.666992 -5.16602 1.33398 -5.49902 2.00098s-0.5 2 -0.5 4v19c0 2 0.166992 3.5 0.5 4.5s2.16602 1.5 5.49902 1.5v1v1h-9h-9v-1
v-1c3.33301 0 5 -2 5 -6v-8h-17v8c0 4 1.66699 6 5 6v1v1h-9h-8c-0.666992 0 -1 -0.333008 -1 -1s0.333008 -1 1 -1c3.33301 0 5 -2 5 -6v-19c0 -3.33301 -1.66699 -5.33301 -5 -6c-0.666992 0 -1 -0.333008 -1 -1s0.333008 -1 1 -1h8h9v1v1
c-3.33301 0.666992 -5 2.66699 -5 6v9h17v-9c0 -3.33301 -1.66699 -5.33301 -5 -6v-1v-1h9h9v1zM824.996 440.009h-147v-62h36v28h11v-65h-14v-33h81v33h-14v65h11v-28h36v62zM586.996 536.009c0 7.33301 -4.33301 13.335 -13 18.002c2.66699 2.66699 4 5.66699 4 9
s-1.83301 6.66602 -5.5 9.99902s-8.5 5 -14.5 5c-4 0 -7.16699 -1.16699 -9.5 -3.5s-3.5 -5.16602 -3.5 -8.49902c0 -4 1.66699 -6 5 -6c2.66699 0 4 1 4 3s-0.5 3.16699 -1.5 3.5s-1.5 1.16602 -1.5 2.49902c0 4 2.33301 6 7 6c6.66699 0 10 -4 10 -12
c0 -2.66699 -0.666992 -4.66699 -2 -6h-8c-5.33301 0 -8 -2 -8 -6s2.66699 -6 8 -6c4 0 7.66699 1.66699 11 5c4 -3.33301 6 -8.33301 6 -15c0 -9.33301 -4 -14 -12 -14s-12 3 -12 9c0 2 1 3 3 3c0.666992 0 1.33398 -0.333008 2.00098 -1s1.66699 -1 3 -1
c2.66699 0 4 1.66699 4 5s-2.33301 5 -7 5c-6 0 -9 -3.33301 -9 -10c0 -8.66699 5.33301 -13 16 -13c7.33301 0 13.166 1.66699 17.499 5s6.5 7.66602 6.5 12.999zM825.996 623.011h-685v-4h685v4zM438.996 663.011c0 0.666992 -0.334961 1 -1.00195 1
c-3.33301 0.666992 -5 2.66699 -5 6v19c0 4 1.66699 6 5 6l1 1c0 0.666992 -0.333008 1 -1 1h-16h-12c0 -4 -0.666992 -7.33301 -2 -10l2 -1v1c2 5.33301 5 8 9 8h3c2.66699 0 4 -1.33301 4 -4v-10h-4c-4 0 -6 1.66699 -6 5c0 0.666992 -0.333008 1 -1 1s-1 -0.333008 -1 -1
v-6v-6l1 -1c0.666992 0 1 0.333008 1 1c0 4 2 6 6 6h4v-12c0 -2 -1.33301 -3 -4 -3h-3c-5.33301 0 -9.33301 3 -12 9c-0.666992 0 -1 -0.333008 -1 -1c0.666992 -2 1.33398 -3.83301 2.00098 -5.5s1.33398 -3.5 2.00098 -5.5h12h16zM496.994 520.011
c0 1.33301 -0.333984 1.99902 -1.00098 1.99902c-4 1.33301 -6.33301 2.5 -7 3.5s-1.66699 2.83301 -3 5.5l-7 33c-0.666992 0.666992 -1 2 -1 4c0 2.66699 2.33301 4.33398 7 5.00098c0.666992 0 1 0.333008 1 1s-0.333008 1.33398 -1 2.00098
c-2 0 -5.83301 -0.166992 -11.5 -0.5s-10.167 -0.5 -13.5 -0.5s-6.66602 0.166992 -9.99902 0.5s-6.66602 0.5 -9.99902 0.5c0.666992 -1.33301 1 -3.66602 1 -6.99902c0 -1.33301 -0.166992 -2.83301 -0.5 -4.5s-0.5 -3.5 -0.5 -5.5c0 -0.666992 0.666992 -1 2 -1
c0.666992 0 1 0.333008 1 1c0.666992 8.66699 5.33398 13 14.001 13h4c3.33301 0 5.33301 -2 6 -6l3 -16h-4c-3.33301 0 -5.83301 0.5 -7.5 1.5s-3.16699 3.5 -4.5 7.5c0 0.666992 -0.666992 1 -2 1l-1 -1c0.666992 -2.66699 1.16699 -4.5 1.5 -5.5
s0.833008 -2.83301 1.5 -5.5c0.666992 -2 1 -3.83301 1 -5.5s0.333008 -3.83398 1 -6.50098h2h1c-0.666992 7.33301 2 11 8 11h5l3 -16c0.666992 -0.666992 1 -2 1 -4c0 -2.66699 -2.66699 -4.33398 -8 -5.00098l-1 -1l1 -1c0 -0.666992 0.333008 -1 1 -1
c2.66699 0 5 0.166992 7 0.5s4.33301 0.5 7 0.5c3.33301 0 5.66602 -0.166992 6.99902 -0.5s3.66602 -0.5 6.99902 -0.5v1zM822.993 173.01c-0.666992 0 -0.99707 0.331055 -0.99707 0.998047l-1 1c-4 0.666992 -6.33301 1.5 -7 2.5s-1.33398 3.16699 -2.00098 6.5l-9 32v4
c0 2.66699 2.66699 4.33398 8 5.00098l1 1c0 1.33301 -0.666992 2 -2 2h-25h-19v-6v-11c-0.666992 0 -0.833984 -0.166992 -0.500977 -0.5s0.833008 -0.5 1.5 -0.5s1 0.333008 1 1c2 8.66699 6.66699 13 14 13h4c3.33301 0 5.33301 -2 6 -6l4 -15h-5
c-3.33301 0 -5.83301 0.333008 -7.5 1s-3.16699 3.33398 -4.5 8.00098h-1h-2c0.666992 -3.33301 1.16699 -5.5 1.5 -6.5s0.833008 -2.83301 1.5 -5.5c0.666992 -1.33301 1 -3 1 -5s0.666992 -4.33301 2 -7h1h1c-0.666992 7.33301 2 11 8 11h5l3 -15
c0 -1.33301 0.166992 -2.16602 0.5 -2.49902s0.5 -0.833008 0.5 -1.5c0 -2.66699 -2.66699 -4.33398 -8 -5.00098v-2v-1c0 -0.666992 0.333008 -1 1 -1c3.33301 0 5.83301 0.166992 7.5 0.5s4.16699 0.5 7.5 0.5s5.66602 -0.166992 6.99902 -0.5s3.33301 -0.5 6 -0.5z
M825.996 480.008h-685v-4h685v4zM643.996 440.008h-81v-34h11l-15 -23l-15 23h10v34h-62v-34h12l37 -46v-19h-14v-33h81v33h-15v20l37 45h14v34zM398.996 521.008c0 1.33301 -0.999023 2.99902 -2.99902 4.99902s-5.33301 3.33301 -10 4
c-2 2.66699 -3.5 6.83398 -4.5 12.501s-2.16699 11 -3.5 16s-3.5 9.5 -6.5 13.5s-7.83301 6 -14.5 6c-3.33301 0 -6.33301 -1.16699 -9 -3.5s-4 -4.5 -4 -6.5c0 -3.33301 1.66699 -5 5 -5c2.66699 0 4 2 4 6s1.66699 6 5 6s5.5 -1.66699 6.5 -5
s1.83301 -7.16602 2.5 -11.499s1.66699 -9.16602 3 -14.499s3.66602 -10 6.99902 -14c-7.33301 0 -11.5 -2.16699 -12.5 -6.5s-3.83301 -6.5 -8.5 -6.5c-3.33301 0 -5 1.33301 -5 4c0 1.33301 0.333008 2.16602 1 2.49902s1 1.16602 1 2.49902c0 2.66699 -1.66699 4 -5 4
s-5 -2 -5 -6c0 -7.33301 4.33301 -11 13 -11s14 2 16 6s5.66699 6 11 6c3.33301 -4.66699 7.33301 -7 12 -7c2.66699 0 4 1 4 3zM724.997 192.007c0 10 -3.66699 18.833 -11 26.5s-15.666 11.5 -24.999 11.5c-4.66699 0 -9.33398 -1.66699 -14.001 -5s-7 -9 -7 -17
c0 -10 3.66699 -18.833 11 -26.5s15.333 -11.5 24 -11.5c4.66699 0 9.5 1.66699 14.5 5s7.5 9 7.5 17zM291.997 536.007c0 7.33301 -4.33496 13.3359 -13.002 18.0029c2.66699 2.66699 4 5.66699 4 9s-1.83301 6.66602 -5.5 9.99902s-8.5 5 -14.5 5
c-3.33301 0 -6.33301 -1.16699 -9 -3.5s-4 -5.16602 -4 -8.49902c0 -4 1.66699 -6 5 -6s5 1 5 3s-0.5 3.16699 -1.5 3.5s-1.5 1.16602 -1.5 2.49902c0 4 2 6 6 6c6.66699 0 10 -4 10 -12c0 -2 -0.166992 -3.33301 -0.5 -4s-0.5 -1.33398 -0.5 -2.00098h-9
c-4.66699 0 -7 -2 -7 -6s2.33301 -6 7 -6s8.66699 1.66699 12 5c4 -4 6 -9 6 -15c0 -5.33301 -1.16699 -9 -3.5 -11s-5.16602 -3 -8.49902 -3c-8 0 -12 3 -12 9c0 2 0.666992 3 2 3c0.666992 0 1.33398 -0.333008 2.00098 -1s1.66699 -1 3 -1c3.33301 0 5 1.66699 5 5
s-2.66699 5 -8 5c-6 0 -9 -3.33301 -9 -10c0 -8.66699 5.66699 -13 17 -13c7.33301 0 13 1.66699 17 5s6 7.66602 6 12.999zM619.995 225.01c0 2 -0.334961 2.99902 -1.00195 2.99902h-15h-14v-1v-1c0 -0.666992 0.333008 -1 1 -1
c4.66699 -0.666992 7.33398 -1.5 8.00098 -2.5s1.33398 -3.16699 2.00098 -6.5l5 -21c1.33301 -5.33301 2 -8.66602 2 -9.99902c0 -6.66699 -4.33301 -10 -13 -10c-5.33301 0 -9.66602 2.16699 -12.999 6.5s-5.66602 9.5 -6.99902 15.5l-4 19
c0 1.33301 -0.166992 2.16602 -0.5 2.49902s-0.5 0.833008 -0.5 1.5c0 2.66699 2.66699 4.33398 8 5.00098v2v1h-12h-11v-1v-1c0 -0.666992 0.333008 -1 1 -1c4.66699 -0.666992 7.5 -1.5 8.5 -2.5s1.83301 -3.16699 2.5 -6.5l5 -20
c1.33301 -5.33301 3.66602 -11 6.99902 -17s9.66602 -9 18.999 -9c8 0 13.5 1.83301 16.5 5.5s4.5 7.16699 4.5 10.5c0 1.33301 -0.666992 4 -2 8l-5 22c0 1.33301 -0.166992 2.16602 -0.5 2.49902s-0.5 0.833008 -0.5 1.5c0 2.66699 3 4.33398 9 5.00098zM454.993 341.009
h-14v65h14v34h-96c-14.667 0 -26.167 -3.83301 -34.5 -11.5s-12.5 -17.167 -12.5 -28.5s4.16699 -20.833 12.5 -28.5s19.833 -11.5 34.5 -11.5h30v-19h-15v-33h81v33zM825.993 276.009h-685v-4h685v4zM693.993 48.0088l-0.00390625 1c-4 0 -6 1.66699 -6 5l-1 20
c0 3.33301 2 5 6 5v2v1c-1.33301 0 -2.16602 -0.166992 -2.49902 -0.5s-1.16602 -0.5 -2.49902 -0.5s-2.16602 0.166992 -2.49902 0.5s-1.16602 0.5 -2.49902 0.5l-24 -25v17c0 1.33301 0.166992 2.5 0.5 3.5s2.16602 1.5 5.49902 1.5v2v1
c-1.33301 0 -2.66602 -0.166992 -3.99902 -0.5s-2.66602 -0.5 -3.99902 -0.5s-2.5 0.166992 -3.5 0.5s-2.16699 0.5 -3.5 0.5v-1v-2c3.33301 0 5.16602 -0.5 5.49902 -1.5s0.5 -2.16699 0.5 -3.5v-28h2h1l25 27l1 -19c0 -3.33301 -1.66699 -5 -5 -5
c-0.666992 0 -1 -0.333008 -1 -1s0.333008 -1 1 -1h6h8v1zM202.989 520.009c0 0.666992 -0.334961 1.33301 -1.00195 2c-4.66699 1.33301 -7.33398 2.5 -8.00098 3.5s-1.66699 2.83301 -3 5.5l-7 33c-0.666992 0.666992 -1 2 -1 4c0 2.66699 2.66699 4.33398 8 5.00098v1v2
c-3.33301 0 -5.66602 -0.166992 -6.99902 -0.5s-3.33301 -0.5 -6 -0.5s-4.83398 0.166992 -6.50098 0.5s-4.16699 0.5 -7.5 0.5c-13.333 0 -20 -4.33301 -20 -13c0 -4 2 -7.5 6 -10.5s8.33301 -5.16699 13 -6.5l-8 -16c-3.33301 -5.33301 -8 -8.33301 -14 -9
c-0.666992 0 -1 -0.666992 -1 -2c0 -0.666992 0.666992 -1 2 -1c2 0 4.5 0.166992 7.5 0.5s6.5 0.5 10.5 0.5l12 23c0.666992 2 2.33398 3 5.00098 3l4 -14v-4c0 -2.66699 -2.66699 -4.33398 -8 -5.00098v-1v-1c0 -0.666992 0.333008 -1 1 -1c2.66699 0 5 0.166992 7 0.5
s4.66699 0.5 8 0.5c2.66699 0 4.83398 -0.166992 6.50098 -0.5s3.83398 -0.5 6.50098 -0.5c0.666992 0 1 0.333008 1 1zM797.987 -87.9922c0 8.66699 -3.33301 13 -10 13s-10 -4 -10 -12c0 -8.66699 3.33301 -13 10 -13s10 4 10 12zM520.987 175.008
c-6 0.666992 -8.99707 3.66699 -8.99707 9l-7 32c-0.666992 0.666992 -1 1.66699 -1 3c0 3.33301 3 5.33301 9 6c0.666992 0 1 0.333008 1 1c0 1.33301 -0.666992 2 -2 2h-5h-9l-30 -40l-4 28c-1.33301 5.33301 1 8.33301 7 9c0.666992 0 1 0.333008 1 1
c0 1.33301 -0.666992 2 -2 2s-2.83301 -0.166992 -4.5 -0.5s-3.83398 -0.5 -6.50098 -0.5c-2 0 -3.66699 0.166992 -5 0.5s-3 0.5 -5 0.5v-1v-2c5.33301 -0.666992 8.66602 -3.66699 9.99902 -9l8 -45c0 -0.666992 0.333008 -1 1 -1h2l31 44l5 -30
c1.33301 -5.33301 -0.666992 -8.33301 -6 -9c-0.666992 0 -1 -0.666992 -1 -2l1 -2c1.33301 0 3 0.166992 5 0.5s4.33301 0.5 7 0.5c2 0 3.66699 -0.166992 5 -0.5s2.66602 -0.5 3.99902 -0.5c0.666992 0 1 0.666992 1 2zM631.99 48.0078l0.00195312 1.00195
c-3.33301 0 -5.16602 0.5 -5.49902 1.5s-0.5 2.16699 -0.5 3.5v20c0 1.33301 0.166992 2.5 0.5 3.5s2.16602 1.5 5.49902 1.5v2v1c-2 0 -4.66699 -0.166992 -8 -0.5s-6 -0.5 -8 -0.5c-2.66699 0 -4.83398 0.166992 -6.50098 0.5s-3.5 0.5 -5.5 0.5
c-0.666992 -2 -1.16699 -3.66699 -1.5 -5s-0.5 -3 -0.5 -5v-1c0.666992 0 1 0.333008 1 1c1.33301 4.66699 4.66602 7 9.99902 7h2c2.66699 0 4 -1.33301 4 -4v-9h-4c-3.33301 0 -5.33301 1.66699 -6 5l-1 1v-1v-7v-6h1c0.666992 3.33301 1.5 5.16602 2.5 5.49902
s2.16699 0.5 3.5 0.5h4v-11c0 -2.66699 -1.33301 -4 -4 -4h-2c-6 0 -10 3 -12 9h-1c-0.666992 0 -1 -0.333008 -1 -1c2 -2.66699 3.33301 -6.33398 4 -11.001c2.66699 0.666992 6.66699 1 12 1h9c3.33301 0 6 -0.333008 8 -1v2zM581.992 81.0098
c-2 0.666992 -3.33594 0.833008 -4.00293 0.5s-1.66699 -0.5 -3 -0.5s-2.5 0.166992 -3.5 0.5s-2.5 0.5 -4.5 0.5v-1v-2c1.33301 0 2 -1 2 -3v-2l-9 -19l-6 9l5 9c0.666992 4 2.66699 6 6 6l1 2l-1 1c-2 0 -3.16699 -0.166992 -3.5 -0.5s-1.5 -0.5 -3.5 -0.5
c-1.33301 0 -2.33301 0.166992 -3 0.5s-2 0.5 -4 0.5c-1.33301 0 -2.16602 -0.166992 -2.49902 -0.5s-1.16602 -0.5 -2.49902 -0.5s-2.5 0.166992 -3.5 0.5s-2.16699 0.5 -3.5 0.5v-1c0 -1.33301 0.333008 -2 1 -2c2.66699 0 5 -2 7 -6l3 -5l-7 -13l-8 18v3
c0 2 0.666992 3 2 3c0.666992 0 1 0.666992 1 2l-1 1c-1.33301 0 -2.33301 -0.166992 -3 -0.5s-1.66699 -0.5 -3 -0.5s-2.16602 0.166992 -2.49902 0.5s-1.16602 0.5 -2.49902 0.5v-1v-2c2 0 3.16699 -0.5 3.5 -1.5s1.16602 -2.5 2.49902 -4.5l12 -27h1h1l7 15l9 -15h1
l12 27c2.66699 4 4.66699 6 6 6c0.666992 0 1 0.666992 1 2zM825.989 132.009h-685v-4h685v4zM276.989 341.009h-14v65h14v34h-141v-62h41v28h33v-20h-24v-24h24v-21h-33v28h-41v-61h141v33zM412.989 173.009l0.000976562 0.999023l-1 1
c-4.66699 0.666992 -7.33398 1.5 -8.00098 2.5s-1.33398 3.16699 -2.00098 6.5l-8 32v4c0 2.66699 2.33301 4.33398 7 5.00098v1v2h-15c-3.33301 0 -6.16602 0.166992 -8.49902 0.5s-4.5 0.5 -6.5 0.5c-6 0 -11.667 -2 -17 -6s-8 -9.66699 -8 -17
c0 -10.667 3.66699 -19 11 -25s15.333 -9 24 -9h15h9c3.33301 0 6 -0.333008 8 -1v2zM478.99 81.0078c-1.33301 0.666992 -2.5 0.832031 -3.5 0.499023s-2.5 -0.5 -4.5 -0.5s-3.5 0.166992 -4.5 0.5s-2.16699 0.5 -3.5 0.5c-0.666992 0 -1 -0.333008 -1 -1
c0 -1.33301 0.333008 -2 1 -2c1.33301 0 2 -0.666992 2 -2s-0.333008 -2.33301 -1 -3l-6 -9l-6 9c-0.666992 0.666992 -1 1.33398 -1 2.00098c0 2 1.33301 3 4 3v2v1c-1.33301 0 -2.66602 -0.166992 -3.99902 -0.5s-2.66602 -0.5 -3.99902 -0.5s-2.33301 0.166992 -3 0.5
s-1.66699 0.5 -3 0.5v-1v-2c2.66699 0 5.33398 -1.66699 8.00098 -5l8 -12v-8c0 -3.33301 -1.66699 -5 -5 -5v-1v-2c1.33301 0 2.5 0.166992 3.5 0.5s2.83301 0.5 5.5 0.5c1.33301 0 2.66602 -0.166992 3.99902 -0.5s2.66602 -0.5 3.99902 -0.5c0.666992 0 1 0.666992 1 2
l-1 1c-3.33301 0 -5 1.66699 -5 5v8l8 12c1.33301 3.33301 3.66602 5 6.99902 5v2zM604.99 -81.9941c0 4 -2.33301 6 -7 6h-4v-2v-10h2c6 0 9 2 9 6zM304.99 175.006c-4.66699 0.666992 -7.33301 1.5 -8 2.5s-1.33398 3.16699 -2.00098 6.5l-8 32v4
c0 2.66699 2.33301 4.33398 7 5.00098c0.666992 0 1 0.333008 1 1c0 1.33301 -0.666992 2 -2 2h-12h-14c-12.667 0 -19 -4 -19 -12c0 -4 1.83301 -7.66699 5.5 -11s7.83398 -5.33301 12.501 -6l-9 -16c-2 -4.66699 -6 -8 -12 -10c-0.666992 0 -1 -0.333008 -1 -1v-2h1
c2.66699 0.666992 5.33398 1.16699 8.00098 1.5s6 0.5 10 0.5l12 22c1.33301 2 3.33301 3 6 3l3 -13v-4c0 -2.66699 -2.33301 -4.33398 -7 -5.00098c-0.666992 0 -1 -0.666992 -1 -2l1 -2c3.33301 0 5.83301 0.166992 7.5 0.5s4.16699 0.5 7.5 0.5
s5.66602 -0.166992 6.99902 -0.5s3.33301 -0.5 6 -0.5l1 2zM556.991 -80.9941l-5 -11h10zM423.991 64.0059c0 5.33301 -1.83301 9.66602 -5.5 12.999s-8.5 5 -14.5 5s-10.667 -1.66699 -14 -5s-5 -7.66602 -5 -12.999s1.66699 -9.66602 5 -12.999s8 -5 14 -5
s10.833 1.66699 14.5 5s5.5 7.66602 5.5 12.999zM522.991 -80.9941c0 4 -2.33301 6 -7 6h-3v-3v-9h4c4 0 6 2 6 6zM363.991 48.0059l-1.00195 1c-3.33301 0 -5 1.66699 -5 5v20c0 3.33301 1.66699 5 5 5c0.666992 0 1 0.666992 1 2l-1 1
c-1.33301 0 -2.66602 -0.166992 -3.99902 -0.5s-3 -0.5 -5 -0.5s-3.5 0.166992 -4.5 0.5s-2.5 0.5 -4.5 0.5c-8 0 -12 -3 -12 -9c0 -4 2.66699 -7 8 -9l-8 -11c-1.33301 -2.66699 -3.66602 -4 -6.99902 -4v-1v-1h6h6l6 11c1.33301 2 2.33301 3.33301 3 4s2 1 4 1v-9
c0 -3.33301 -1.66699 -5 -5 -5c-0.666992 0 -1 -0.333008 -1 -1c0 -1.33301 0.333008 -2 1 -2c1.33301 0 2.5 0.166992 3.5 0.5s2.5 0.5 4.5 0.5c2.66699 0 4.5 -0.166992 5.5 -0.5s2.16699 -0.5 3.5 -0.5c0.666992 0 1 0.666992 1 2zM201.989 215.006
c1.33301 1.33301 1.33203 1.99902 -0.000976562 1.99902c-2 3.33301 -4.16699 6.33301 -6.5 9s-6.16602 4 -11.499 4c-9.33301 0 -14 -6 -14 -18v-5c-2 6.66699 -5.16699 12.167 -9.5 16.5s-9.16602 6.5 -14.499 6.5c-3.33301 0 -5.66602 -1.16699 -6.99902 -3.5
s-2 -5.16602 -2 -8.49902v-1h3c0 4 2.66699 6 8 6c6.66699 0 11.667 -3.16699 15 -9.5s6.33301 -14.166 9 -23.499l1 -6v-4c0 -2.66699 -2.33301 -4.33398 -7 -5.00098v-2v-1c0 -0.666992 0.333008 -1 1 -1c3.33301 0 5.83301 0.166992 7.5 0.5s4.16699 0.5 7.5 0.5
c2.66699 0 4.66699 -0.166992 6 -0.5s3.33301 -0.5 6 -0.5l1 2l-1 2c-4.66699 0.666992 -7.33398 1.5 -8.00098 2.5s-1.33398 3.16699 -2.00098 6.5l-2 8c-2 6 -3 11.667 -3 17c0 8.66699 3 13 9 13c3.33301 0 5.83301 -0.833008 7.5 -2.5l4.5 -4.5h2v0zM307.988 48.0049
v0.999023c-4 0 -6 1.66699 -6 5v20c0 3.33301 2 5 6 5v2v1c-1.33301 0 -2.66602 -0.166992 -3.99902 -0.5s-3 -0.5 -5 -0.5s-3.5 0.166992 -4.5 0.5s-2.5 0.5 -4.5 0.5v-1v-2c3.33301 0 5.16602 -0.5 5.49902 -1.5s0.5 -2.16699 0.5 -3.5v-10c-2 0 -3.33301 1 -4 3l-8 8
c-1.33301 1.33301 -2 2.33301 -2 3s1 1 3 1v2v1c-1.33301 0 -2.5 -0.166992 -3.5 -0.5s-2.16699 -0.5 -3.5 -0.5s-2.33301 0.166992 -3 0.5s-1.66699 0.5 -3 0.5v-1v-2c2.66699 0 4.33398 -0.333008 5.00098 -1l3 -3l9 -9l-13 -13c-2.66699 -2.66699 -5 -4 -7 -4l-1 -1
c0 -1.33301 0.333008 -2 1 -2c1.33301 0 2.5 0.166992 3.5 0.5s2.5 0.5 4.5 0.5c1.33301 0 2.83301 -0.166992 4.5 -0.5s3.5 -0.5 5.5 -0.5v2v1c-2 0 -3 0.666992 -3 2c0 0.666992 0.333008 1.33398 1 2.00098l7 8c1.33301 1.33301 2.66602 2 3.99902 2v-9
c0 -1.33301 -0.166992 -2.5 -0.5 -3.5s-2.16602 -1.5 -5.49902 -1.5v-1v-2c2 0 3.5 0.166992 4.5 0.5s2.5 0.5 4.5 0.5s3.66699 -0.166992 5 -0.5s2.66602 -0.5 3.99902 -0.5v2zM438.988 -87.9961c0 8.66699 -3.33301 13 -10 13s-10 -4 -10 -12
c0 -8.66699 3.33301 -13 10 -13s10 4 10 12zM392.988 -81.9961c0 4 -2.33301 6 -7 6h-4v-2v-10h3c5.33301 0 8 2 8 6zM682.988 535.004c0 -9.33301 -4 -14 -12 -14c-6 0 -11.5 4 -16.5 12s-7.5 17 -7.5 27s4 15 12 15c6 0 11.5 -4 16.5 -12s7.5 -17.333 7.5 -28z
M564.988 553.004c-2 -2.66699 -4.33203 -4 -6.99902 -4s-4 0.666992 -4 2c0 2 1.33301 3 4 3c3.33301 0 5.66602 -0.333008 6.99902 -1zM712.989 188.004c0 -10 -3.33301 -15 -10 -15c-7.33301 0 -13.166 4 -17.499 12s-6.5 17.333 -6.5 28c0 9.33301 3.33301 14 10 14
c7.33301 0 13.166 -4 17.499 -12s6.5 -17 6.5 -27zM269.989 553.004c-2 -2.66699 -4.33203 -4 -6.99902 -4c-2 0 -3 0.666992 -3 2c0 2 1 3 3 3c3.33301 0 5.66602 -0.333008 6.99902 -1zM377.99 384.004c-8.66699 0 -13 3.66699 -13 11s4.33301 11 13 11h11v-22h-11z
M170.99 548.004c-6 0 -10 1.66797 -12 5.00098s-3 6.66602 -3 9.99902c0 6 2.66699 9 8 9c4.66699 0 7.66699 -2 9 -6l3 -18h-5zM553.99 77.0049c0 -1.33301 -1 -3.33398 -3 -6.00098c-0.666992 0.666992 -1 1.66699 -1 3c0 0.666992 -0.333008 1.33398 -1 2.00098
c0 2 0.666992 3 2 3c2 0 3 -0.666992 3 -2zM391.99 182.004c0 -3.33301 -0.333008 -5.16797 -1 -5.50098s-1.66699 -0.5 -3 -0.5h-5c-7.33301 0 -13.5 3.16699 -18.5 9.5s-7.5 13.5 -7.5 21.5c0 12 4.66699 18 14 18l6 -1c1.33301 0 2.33301 -0.166992 3 -0.5
s1.66699 -2.16602 3 -5.49902l9 -36v0zM274.99 201.002c-6 0 -10 1.5 -12 4.5s-3 6.16699 -3 9.5c0 6.66699 2.66699 10 8 10c4.66699 0 7 -2.33301 7 -7l5 -17h-5zM415.99 64.002c0 -10.667 -4.00098 -16 -12.001 -16s-12 5.33301 -12 16c0 4.66699 1 8.66699 3 12s5 5 9 5
c4.66699 0 7.83398 -1.66699 9.50098 -5s2.5 -7.33301 2.5 -12zM347.989 65.002c-5.33301 0 -8 2.66699 -8 8c0 4 2.33301 6 7 6c2.66699 0 4 -1.33301 4 -4v-10h-3z" />
    <glyph glyph-name="fi" unicode="&#xfb01;" horiz-adv-x="587" 
d="M374 667v133h177v-133h-177zM374 0v590h177v-590h-177zM253 470l-0.000976562 -469.999h-176v470h-57v120h57v50c0 22.667 4.33301 43.667 13 63s20.667 36.166 36 50.499s33.333 25.666 54 33.999s43.334 12.5 68.001 12.5h80v-135h-37
c-10.667 0 -19.667 -3.66699 -27 -11s-11 -16.666 -11 -27.999v-36h75v-120h-75z" />
    <glyph glyph-name="fl" unicode="&#xfb02;" horiz-adv-x="587" 
d="M374 0v800h177v-800h-177zM253 470l-0.000976562 -469.999h-176v470h-57v120h57v50c0 22.667 4.33301 43.667 13 63s20.667 36.166 36 50.499s33.333 25.666 54 33.999s43.334 12.5 68.001 12.5h80v-135h-37c-10.667 0 -19.667 -3.66699 -27 -11s-11 -16.666 -11 -27.999
v-36h75v-120h-75z" />
    <glyph glyph-name=".null" horiz-adv-x="0" 
 />
    <glyph glyph-name="nonmarkingreturn" horiz-adv-x="175" 
 />
    </font>
</defs>
</svg>
